<svg width="1253" height="62" viewBox="0 0 1253 62" fill="none" xmlns="http://www.w3.org/2000/svg">
<path opacity="0.2" d="M33.3281 29.7656H32.3281V30.5308L33.0667 30.7309L33.3281 29.7656ZM33.3281 29.6094L32.961 28.6792L32.3281 28.929V29.6094H33.3281ZM41.1406 20.7031L42.1069 20.9608L42.1109 20.9456L42.1145 20.9304L41.1406 20.7031ZM36.9609 6.83594L37.5832 6.05311L37.5722 6.04437L37.5609 6.03594L36.9609 6.83594ZM31.1016 4.10156L31.3592 3.13532L31.3553 3.13428L31.1016 4.10156ZM1.41406 3.16406V2.16406H0.414062V3.16406H1.41406ZM1.41406 60H0.414062V61H1.41406V60ZM43.3672 50.5078L44.293 50.8857L44.2964 50.8776L44.2995 50.8693L43.3672 50.5078ZM41.7266 35L42.5326 34.4081L42.5273 34.401L42.522 34.394L41.7266 35ZM14.5391 14.9609V13.9609H13.5391V14.9609H14.5391ZM26.0234 24.4141L26.589 25.2389L26.6001 25.231L26.0234 24.4141ZM14.5391 25.8203H13.5391V26.8203H14.5391V25.8203ZM14.5391 48.3203H13.5391V49.3203H14.5391V48.3203ZM14.5391 36.3281V35.3281H13.5391V36.3281H14.5391ZM29.9688 44.9609L29.0838 44.4952L29.079 44.5044L29.0743 44.5137L29.9688 44.9609ZM25.6328 47.9297L25.408 46.9553L25.3903 46.9594L25.3728 46.9641L25.6328 47.9297ZM34.3281 29.7656V29.6094H32.3281V29.7656H34.3281ZM33.6953 30.5395C35.2793 29.9143 36.6649 29.0764 37.8461 28.0639L36.5445 26.5454C35.5382 27.408 34.3457 28.1326 32.961 28.6792L33.6953 30.5395ZM37.8461 28.0639C39.0254 27.0531 39.9629 25.9063 40.649 24.6628L38.8979 23.6966C38.334 24.7187 37.5527 25.6812 36.5445 26.5454L37.8461 28.0639ZM40.649 24.6628C41.3216 23.4438 41.7784 22.1927 42.1069 20.9608L40.1744 20.4455C39.8779 21.5573 39.4753 22.65 38.8979 23.6966L40.649 24.6628ZM42.1145 20.9304C42.4035 19.6917 42.5703 18.4044 42.5703 17.0703H40.5703C40.5703 18.2363 40.4246 19.3708 40.1668 20.4759L42.1145 20.9304ZM42.5703 17.0703C42.5703 14.7626 42.1578 12.6649 41.3088 10.7971L39.4881 11.6247C40.2016 13.1945 40.5703 15.003 40.5703 17.0703H42.5703ZM41.3088 10.7971C40.4605 8.93088 39.2275 7.36015 37.5832 6.05311L36.3387 7.61876C37.7412 8.7336 38.7739 10.0535 39.4881 11.6247L41.3088 10.7971ZM37.5609 6.03594C35.8827 4.77725 33.8095 3.78873 31.3592 3.13533L30.8439 5.0678C33.0811 5.6644 34.9142 6.55088 36.3609 7.63594L37.5609 6.03594ZM31.3553 3.13428C28.8714 2.48278 26.0489 2.16406 22.8594 2.16406V4.16406C25.9199 4.16406 28.5661 4.47034 30.8479 5.06884L31.3553 3.13428ZM22.8594 2.16406H1.41406V4.16406H22.8594V2.16406ZM0.414062 3.16406V60H2.41406V3.16406H0.414062ZM1.41406 61H26.3359V59H1.41406V61ZM26.3359 61C29.3927 61 32.1192 60.5977 34.5819 59.7768L33.9494 57.8794C31.7245 58.6211 29.2166 59 26.3359 59V61ZM34.5819 59.7768C37.0465 58.9552 39.0924 57.7526 40.6956 56.2338L39.3201 54.7819C37.9545 56.0755 36.1722 57.1385 33.9494 57.8794L34.5819 59.7768ZM40.6956 56.2338C42.2947 54.7188 43.4644 52.9159 44.293 50.8857L42.4413 50.1299C41.7075 51.9279 40.6897 53.4843 39.3201 54.7819L40.6956 56.2338ZM44.2995 50.8693C45.0899 48.8311 45.5 46.5982 45.5 44.1406H43.5C43.5 46.3706 43.1289 48.3564 42.4348 50.1463L44.2995 50.8693ZM45.5 44.1406C45.5 40.3646 44.5115 37.1028 42.5326 34.4081L40.9206 35.5919C42.6135 37.8972 43.5 40.7292 43.5 44.1406H45.5ZM42.522 34.394C40.4867 31.7227 37.5054 29.861 33.5895 28.8004L33.0667 30.7309C36.6508 31.7015 39.2164 33.3554 40.9311 35.606L42.522 34.394ZM14.5391 15.9609H20.3984V13.9609H14.5391V15.9609ZM20.3984 15.9609C22.8908 15.9609 24.5348 16.4207 25.525 17.1943L26.7563 15.6182C25.2464 14.4386 23.0623 13.9609 20.3984 13.9609V15.9609ZM25.525 17.1943C26.5301 17.9795 27.0547 19.0158 27.0547 20.3906H29.0547C29.0547 18.4061 28.2512 16.7861 26.7563 15.6182L25.525 17.1943ZM27.0547 20.3906C27.0547 21.8321 26.5025 22.8519 25.4468 23.5971L26.6001 25.231C28.2006 24.1012 29.0547 22.4648 29.0547 20.3906H27.0547ZM25.4579 23.5893C24.296 24.3861 22.7883 24.8203 20.8281 24.8203V26.8203C23.0867 26.8203 25.0165 26.317 26.589 25.2388L25.4579 23.5893ZM20.8281 24.8203H14.5391V26.8203H20.8281V24.8203ZM15.5391 25.8203V14.9609H13.5391V25.8203H15.5391ZM22.2344 47.3203H14.5391V49.3203H22.2344V47.3203ZM15.5391 48.3203V36.3281H13.5391V48.3203H15.5391ZM14.5391 37.3281H22.2344V35.3281H14.5391V37.3281ZM22.2344 37.3281C24.8628 37.3281 26.7136 37.8583 27.8704 38.7581L29.0983 37.1794C27.4426 35.8917 25.0747 35.3281 22.2344 35.3281V37.3281ZM27.8704 38.7581C29.0245 39.6557 29.5938 40.8445 29.5938 42.3438H31.5938C31.5938 40.2493 30.7567 38.4693 29.0983 37.1794L27.8704 38.7581ZM29.5938 42.3438C29.5938 43.197 29.3989 43.8965 29.0838 44.4952L30.8537 45.4267C31.3198 44.541 31.5938 43.5218 31.5938 42.3438H29.5938ZM29.0743 44.5137C28.7709 45.1206 28.3149 45.6122 27.716 45.9904L28.784 47.6814C29.6694 47.1222 30.3854 46.3638 30.8632 45.4081L29.0743 44.5137ZM27.716 45.9904C27.0589 46.4054 26.3031 46.7487 25.408 46.9553L25.8577 48.9041C26.9937 48.6419 27.9567 48.2039 28.784 47.6814L27.716 45.9904ZM25.3728 46.9641C24.4659 47.2083 23.4254 47.3203 22.2344 47.3203V49.3203C23.5434 49.3203 24.7685 49.198 25.8928 48.8953L25.3728 46.9641ZM79.0312 22.6562L79.5323 21.7908L79.5237 21.7859L79.0312 22.6562ZM54.6953 25.8203L55.4101 26.5196L55.4103 26.5194L54.6953 25.8203ZM50.5547 32.2656L49.6282 31.8892L49.6262 31.8942L50.5547 32.2656ZM50.6328 48.7109L51.5614 48.3395L51.5563 48.3273L50.6328 48.7109ZM61.3359 59.2578L61.7123 58.3313L61.6998 58.3264L61.3359 59.2578ZM79.7344 58.7109L80.1482 59.6213L80.1527 59.6192L79.7344 58.7109ZM86.8828 53.2812L87.6663 53.9026L88.1885 53.2442L87.6298 52.6164L86.8828 53.2812ZM80.2422 45.8203L80.9892 45.1555L80.2311 44.3038L79.4856 45.1665L80.2422 45.8203ZM61.4922 43.7891V42.7891H60.2724L60.5116 43.9852L61.4922 43.7891ZM88.1328 43.7891V44.7891H89.0128L89.1247 43.9162L88.1328 43.7891ZM72.3906 30.8594L72.852 29.9722L72.8311 29.9613L72.8097 29.9514L72.3906 30.8594ZM74.8125 32.9688L75.6445 32.414L75.6391 32.4058L75.6334 32.3977L74.8125 32.9688ZM76.1797 36.25L76.185 37.25L77.4588 37.2432L77.1498 36.0075L76.1797 36.25ZM61.5312 36.3281L60.5507 36.132L60.3101 37.3347L61.5366 37.3281L61.5312 36.3281ZM64.1484 31.7578L64.7731 32.5387L64.7787 32.5343L64.7841 32.5297L64.1484 31.7578ZM89.4453 40.0781C89.4453 36.0948 88.5496 32.4929 86.8258 29.2915L85.0648 30.2397C86.6223 33.1321 87.4453 36.4052 87.4453 40.0781H89.4453ZM86.8258 29.2915C85.0955 26.0781 82.6578 23.6004 79.5323 21.7908L78.5302 23.5217C81.3422 25.1496 83.5139 27.3594 85.0648 30.2397L86.8258 29.2915ZM79.5237 21.7859C76.3933 20.0147 72.862 19.1172 68.9531 19.1172V21.1172C72.5442 21.1172 75.7317 21.9384 78.5388 23.5266L79.5237 21.7859ZM68.9531 19.1172C65.9801 19.1172 63.1932 19.6472 60.6029 20.7163L61.3659 22.565C63.6974 21.6028 66.223 21.1172 68.9531 21.1172V19.1172ZM60.6029 20.7163C58.0257 21.7798 55.8004 23.2597 53.9803 25.1212L55.4103 26.5194C57.0277 24.8653 59.0211 23.5327 61.3659 22.565L60.6029 20.7163ZM53.9805 25.121C52.1224 27.0204 50.6874 29.282 49.6282 31.8892L51.4812 32.642C52.4532 30.2492 53.7526 28.214 55.4101 26.5196L53.9805 25.121ZM49.6262 31.8942C48.557 34.5672 48.0703 37.43 48.0703 40.4297H50.0703C50.0703 37.6481 50.5211 35.0422 51.4832 32.637L49.6262 31.8942ZM48.0703 40.4297C48.0703 43.5137 48.5982 46.4196 49.7093 49.0945L51.5563 48.3273C50.5581 45.9241 50.0703 43.2832 50.0703 40.4297H48.0703ZM49.7043 49.0823C50.7703 51.7473 52.2925 54.0136 54.1913 55.8711L55.5899 54.4414C53.895 52.7833 52.5265 50.7527 51.5613 48.3395L49.7043 49.0823ZM54.1913 55.8711C56.0907 57.7292 58.3554 59.1671 60.9721 60.1893L61.6998 58.3264C59.3164 57.3954 57.2843 56.099 55.5899 54.4414L54.1913 55.8711ZM60.9596 60.1843C63.5958 61.2552 66.4215 61.7422 69.4219 61.7422V59.7422C66.641 59.7422 64.0761 59.2916 61.7123 58.3313L60.9596 60.1843ZM69.4219 61.7422C73.4036 61.7422 76.987 61.0582 80.1482 59.6213L79.3206 57.8006C76.4661 59.098 73.1745 59.7422 69.4219 59.7422V61.7422ZM80.1527 59.6192C83.2418 58.1966 85.7578 56.309 87.6663 53.9026L86.0993 52.6599C84.4141 54.7847 82.1644 56.4909 79.3161 57.8026L80.1527 59.6192ZM87.6298 52.6164L80.9892 45.1555L79.4952 46.4852L86.1358 53.9461L87.6298 52.6164ZM79.4856 45.1665C76.9093 48.1476 74.0078 49.5469 70.75 49.5469V51.5469C74.6797 51.5469 78.1063 49.8212 80.9988 46.4742L79.4856 45.1665ZM70.75 49.5469C68.5846 49.5469 66.7936 49.0094 65.2587 47.9628L64.132 49.6153C66.0345 50.9125 68.2279 51.5469 70.75 51.5469V49.5469ZM65.2587 47.9628C63.7763 46.9521 62.8562 45.5099 62.4728 43.5929L60.5116 43.9852C60.9876 46.3651 62.1768 48.2822 64.132 49.6153L65.2587 47.9628ZM61.4922 44.7891H88.1328V42.7891H61.4922V44.7891ZM89.1247 43.9162C89.3209 42.3859 89.4453 41.083 89.4453 40.0781H87.4453C87.4453 40.9482 87.3354 42.1453 87.1409 43.6619L89.1247 43.9162ZM69.0703 31.1172C70.1233 31.1172 71.0747 31.3534 71.9716 31.7673L72.8097 29.9514C71.6753 29.4278 70.4392 29.1172 69.0703 29.1172V31.1172ZM71.9293 31.7466C72.7704 32.184 73.4643 32.7818 73.9916 33.5398L75.6334 32.3977C74.9107 31.3588 73.9639 30.5504 72.852 29.9722L71.9293 31.7466ZM73.9805 33.5235C74.5233 34.3378 74.9154 35.3159 75.2095 36.4925L77.1498 36.0075C76.819 34.6841 76.3517 33.4747 75.6445 32.414L73.9805 33.5235ZM76.1744 35.25L61.5259 35.3281L61.5366 37.3281L76.185 37.25L76.1744 35.25ZM62.5118 36.5242C62.8645 34.761 63.6198 33.4614 64.7731 32.5387L63.5237 30.9769C61.9427 32.2418 60.9793 33.989 60.5507 36.132L62.5118 36.5242ZM64.7841 32.5297C65.9092 31.6032 67.3159 31.1172 69.0703 31.1172V29.1172C66.9184 29.1172 65.0439 29.7249 63.5127 30.9859L64.7841 32.5297ZM121.492 20.8594V19.8594H120.492V20.8594H121.492ZM121.492 25V26H122.492V25H121.492ZM121.336 25L120.581 25.6553L120.88 26H121.336V25ZM97.8203 25.7812L98.5668 26.4466L98.5677 26.4456L97.8203 25.7812ZM94.0703 32.2656L95.0085 32.612L95.013 32.5992L94.0703 32.2656ZM94.0703 48.75L95.013 48.4164L95.0099 48.4076L95.0066 48.3989L94.0703 48.75ZM97.8594 55.1562L98.5986 54.4828L98.5908 54.4742L98.5827 54.4658L97.8594 55.1562ZM103.719 59.2578L104.128 58.3453L104.118 58.3411L104.109 58.3371L103.719 59.2578ZM122 55.7812V54.7812H121.506L121.206 55.1738L122 55.7812ZM122.156 55.7812H123.156V54.7812H122.156V55.7812ZM122.156 60H121.156V61H122.156V60ZM134.031 60V61H135.031V60H134.031ZM134.031 20.8594H135.031V19.8594H134.031V20.8594ZM107.742 33.7891L108.474 34.4708L108.482 34.4617L107.742 33.7891ZM119.617 47.1875L120.349 47.8693L120.357 47.8602L119.617 47.1875ZM120.492 20.8594V25H122.492V20.8594H120.492ZM121.492 24H121.336V26H121.492V24ZM122.091 24.3447C119.087 20.8812 115.216 19.1172 110.555 19.1172V21.1172C114.643 21.1172 117.96 22.6344 120.581 25.6553L122.091 24.3447ZM110.555 19.1172C107.917 19.1172 105.39 19.6535 103.063 20.7336L103.905 22.5476C105.954 21.5965 108.192 21.1172 110.555 21.1172V19.1172ZM103.063 20.7336C100.765 21.8005 98.736 23.2459 97.0729 25.1169L98.5677 26.4456C100.03 24.801 101.828 23.512 103.905 22.5476L103.063 20.7336ZM97.0738 25.1159C95.3779 27.0186 94.0651 29.2826 93.1276 31.932L95.013 32.5992C95.8724 30.1705 97.0596 28.1377 98.5668 26.4466L97.0738 25.1159ZM93.1322 31.9193C92.1475 34.5863 91.7031 37.4406 91.7031 40.4688H93.7031C93.7031 37.6375 94.1182 35.0231 95.0084 32.612L93.1322 31.9193ZM91.7031 40.4688C91.7031 43.5705 92.1461 46.4669 93.134 49.1011L95.0066 48.3989C94.1195 46.0331 93.7031 43.3826 93.7031 40.4688H91.7031ZM93.1276 49.0836C94.0642 51.7305 95.381 54.0081 97.136 55.8467L98.5827 54.4658C97.0565 52.8669 95.8733 50.8476 95.013 48.4164L93.1276 49.0836ZM97.1202 55.8297C98.824 57.6998 100.898 59.1487 103.329 60.1786L104.109 58.3371C101.93 57.4138 100.098 56.1284 98.5986 54.4828L97.1202 55.8297ZM103.31 60.1703C105.724 61.2524 108.367 61.7422 111.141 61.7422V59.7422C108.602 59.7422 106.245 59.2945 104.128 58.3453L103.31 60.1703ZM111.141 61.7422C116.091 61.7422 120.039 59.9925 122.794 56.3887L121.206 55.1738C118.883 58.2106 115.565 59.7422 111.141 59.7422V61.7422ZM122 56.7812H122.156V54.7812H122V56.7812ZM121.156 55.7812V60H123.156V55.7812H121.156ZM122.156 61H134.031V59H122.156V61ZM135.031 60V20.8594H133.031V60H135.031ZM134.031 19.8594H121.492V21.8594H134.031V19.8594ZM113.719 48.7266C111.511 48.7266 109.798 48.0048 108.443 46.5148L106.963 47.8602C108.734 49.8077 111.005 50.7266 113.719 50.7266V48.7266ZM108.443 46.5148C107.077 45.0121 106.359 43.0402 106.359 40.5078H104.359C104.359 43.4442 105.204 45.9254 106.963 47.8602L108.443 46.5148ZM106.359 40.5078C106.359 37.9718 107.079 35.968 108.474 34.4708L107.011 33.1073C105.203 35.0476 104.359 37.5751 104.359 40.5078H106.359ZM108.482 34.4617C109.843 32.965 111.599 32.2109 113.758 32.2109V30.2109C111.073 30.2109 108.767 31.1756 107.002 33.1164L108.482 34.4617ZM113.758 32.2109C115.085 32.2109 116.309 32.5832 117.408 33.2699L118.467 31.5739C117.066 30.698 115.477 30.2109 113.758 30.2109V32.2109ZM117.408 33.2699C118.492 33.9478 119.386 34.9376 120.012 36.1894L121.801 35.295C121.02 33.7342 119.883 32.4585 118.467 31.5739L117.408 33.2699ZM120.012 36.1894C120.644 37.4534 121 38.9014 121 40.5078H123C123 38.5986 122.575 36.8435 121.801 35.295L120.012 36.1894ZM121 40.5078C121 43.0283 120.25 45.0044 118.877 46.5148L120.357 47.8602C122.109 45.9331 123 43.4561 123 40.5078H121ZM118.886 46.5058C117.479 48.0151 115.794 48.7266 113.719 48.7266V50.7266C116.331 50.7266 118.552 49.7974 120.349 47.8692L118.886 46.5058ZM165.75 58.0469L166.239 58.919L166.961 58.5142L166.698 57.7294L165.75 58.0469ZM162.664 48.8281L163.612 48.5107L163.242 47.4053L162.206 47.9392L162.664 48.8281ZM155.828 31.0547V30.0547H154.828V31.0547H155.828ZM165.32 31.0547V32.0547H166.32V31.0547H165.32ZM165.32 20.8594H166.32V19.8594H165.32V20.8594ZM155.828 20.8594H154.828V21.8594H155.828V20.8594ZM155.828 7.03125H156.828V5.91937L155.722 6.03685L155.828 7.03125ZM143.328 8.35938L143.222 7.36497L142.328 7.46V8.35938H143.328ZM143.328 20.8594V21.8594H144.328V20.8594H143.328ZM138.914 20.8594V19.8594H137.914V20.8594H138.914ZM138.914 31.0547H137.914V32.0547H138.914V31.0547ZM143.328 31.0547H144.328V30.0547H143.328V31.0547ZM146.453 57.4219L147.185 56.7409L147.179 56.7343L147.173 56.7277L146.453 57.4219ZM154.812 61.7422C157.35 61.7422 159.491 61.5456 161.226 61.0379L160.664 59.1184C159.196 59.5481 157.275 59.7422 154.812 59.7422V61.7422ZM161.226 61.0379C162.901 60.5478 164.572 59.8543 166.239 58.919L165.261 57.1747C163.725 58.0364 162.193 58.671 160.664 59.1184L161.226 61.0379ZM166.698 57.7294L163.612 48.5107L161.716 49.1456L164.802 58.3643L166.698 57.7294ZM162.206 47.9392C161.05 48.5348 159.917 48.8047 158.797 48.8047V50.8047C160.255 50.8047 161.7 50.4496 163.122 49.7171L162.206 47.9392ZM158.797 48.8047C157.913 48.8047 157.534 48.5229 157.329 48.1509L155.577 49.1147C156.232 50.3052 157.415 50.8047 158.797 50.8047V48.8047ZM157.329 48.1509C157.019 47.5867 156.828 46.6919 156.828 45.3516H154.828C154.828 46.8237 155.028 48.1164 155.577 49.1147L157.329 48.1509ZM156.828 45.3516V31.0547H154.828V45.3516H156.828ZM155.828 32.0547H165.32V30.0547H155.828V32.0547ZM166.32 31.0547V20.8594H164.32V31.0547H166.32ZM165.32 19.8594H155.828V21.8594H165.32V19.8594ZM156.828 20.8594V7.03125H154.828V20.8594H156.828ZM155.722 6.03685L143.222 7.36497L143.434 9.35378L155.934 8.02565L155.722 6.03685ZM142.328 8.35938V20.8594H144.328V8.35938H142.328ZM143.328 19.8594H138.914V21.8594H143.328V19.8594ZM137.914 20.8594V31.0547H139.914V20.8594H137.914ZM138.914 32.0547H143.328V30.0547H138.914V32.0547ZM142.328 31.0547V47.6953H144.328V31.0547H142.328ZM142.328 47.6953C142.328 52.1341 143.377 55.6721 145.733 58.116L147.173 56.7277C145.311 54.7966 144.328 51.8503 144.328 47.6953H142.328ZM145.721 58.1028C148.012 60.567 151.069 61.7422 154.812 61.7422V59.7422C151.524 59.7422 149.035 58.7298 147.185 56.7409L145.721 58.1028ZM214.812 58.0469L215.302 58.919L216.023 58.5142L215.761 57.7294L214.812 58.0469ZM211.727 48.8281L212.675 48.5107L212.305 47.4053L211.269 47.9392L211.727 48.8281ZM204.891 31.0547V30.0547H203.891V31.0547H204.891ZM214.383 31.0547V32.0547H215.383V31.0547H214.383ZM214.383 20.8594H215.383V19.8594H214.383V20.8594ZM204.891 20.8594H203.891V21.8594H204.891V20.8594ZM204.891 7.03125H205.891V5.91937L204.785 6.03685L204.891 7.03125ZM192.391 8.35938L192.285 7.36497L191.391 7.46V8.35938H192.391ZM192.391 20.8594V21.8594H193.391V20.8594H192.391ZM187.977 20.8594V19.8594H186.977V20.8594H187.977ZM187.977 31.0547H186.977V32.0547H187.977V31.0547ZM192.391 31.0547H193.391V30.0547H192.391V31.0547ZM195.516 57.4219L196.248 56.7409L196.242 56.7343L196.235 56.7277L195.516 57.4219ZM203.875 61.7422C206.413 61.7422 208.554 61.5456 210.289 61.0379L209.727 59.1184C208.259 59.5481 206.337 59.7422 203.875 59.7422V61.7422ZM210.289 61.0379C211.963 60.5478 213.635 59.8543 215.302 58.919L214.323 57.1747C212.787 58.0364 211.256 58.671 209.727 59.1184L210.289 61.0379ZM215.761 57.7294L212.675 48.5107L210.778 49.1456L213.864 58.3643L215.761 57.7294ZM211.269 47.9392C210.112 48.5348 208.979 48.8047 207.859 48.8047V50.8047C209.317 50.8047 210.763 50.4496 212.185 49.7171L211.269 47.9392ZM207.859 48.8047C206.976 48.8047 206.596 48.5229 206.392 48.1509L204.639 49.1147C205.294 50.3052 206.477 50.8047 207.859 50.8047V48.8047ZM206.392 48.1509C206.082 47.5867 205.891 46.6919 205.891 45.3516H203.891C203.891 46.8237 204.09 48.1164 204.639 49.1147L206.392 48.1509ZM205.891 45.3516V31.0547H203.891V45.3516H205.891ZM204.891 32.0547H214.383V30.0547H204.891V32.0547ZM215.383 31.0547V20.8594H213.383V31.0547H215.383ZM214.383 19.8594H204.891V21.8594H214.383V19.8594ZM205.891 20.8594V7.03125H203.891V20.8594H205.891ZM204.785 6.03685L192.285 7.36497L192.496 9.35378L204.996 8.02565L204.785 6.03685ZM191.391 8.35938V20.8594H193.391V8.35938H191.391ZM192.391 19.8594H187.977V21.8594H192.391V19.8594ZM186.977 20.8594V31.0547H188.977V20.8594H186.977ZM187.977 32.0547H192.391V30.0547H187.977V32.0547ZM191.391 31.0547V47.6953H193.391V31.0547H191.391ZM191.391 47.6953C191.391 52.1341 192.439 55.6721 194.796 58.116L196.235 56.7277C194.373 54.7966 193.391 51.8503 193.391 47.6953H191.391ZM194.783 58.1028C197.075 60.567 200.132 61.7422 203.875 61.7422V59.7422C200.587 59.7422 198.097 58.7298 196.248 56.7409L194.783 58.1028ZM238.68 21.4453L238.296 20.5217L238.288 20.5253L238.68 21.4453ZM233.289 25.3906V26.3906H233.747L234.046 26.0442L233.289 25.3906ZM233.133 25.3906H232.133V26.3906H233.133V25.3906ZM233.133 1.09375H234.133V0.09375H233.133V1.09375ZM220.633 1.09375V0.09375H219.633V1.09375H220.633ZM220.633 60H219.633V61H220.633V60ZM233.133 60V61H234.133V60H233.133ZM233.133 40.2734V39.2734H232.133V40.2734H233.133ZM233.172 40.2734V41.2734H234.172V40.2734H233.172ZM235.125 33.5547L235.879 34.2118L235.88 34.2104L235.125 33.5547ZM245.438 33.0859L246.204 32.4433L246.198 32.4371L246.193 32.431L245.438 33.0859ZM246.961 60H245.961V61H246.961V60ZM259.461 60V61H260.461V60H259.461ZM258.406 28.6719L259.358 28.3659L259.357 28.3608L258.406 28.6719ZM255.438 23.6328L256.122 22.904L256.117 22.8989L256.111 22.8939L255.438 23.6328ZM245.359 19.1172C242.842 19.1172 240.485 19.6131 238.296 20.5217L239.063 22.3689C241.015 21.5587 243.111 21.1172 245.359 21.1172V19.1172ZM238.288 20.5253C236.035 21.4848 234.114 22.9053 232.532 24.737L234.046 26.0442C235.433 24.4384 237.106 23.2027 239.072 22.3653L238.288 20.5253ZM233.289 24.3906H233.133V26.3906H233.289V24.3906ZM234.133 25.3906V1.09375H232.133V25.3906H234.133ZM233.133 0.09375H220.633V2.09375H233.133V0.09375ZM219.633 1.09375V60H221.633V1.09375H219.633ZM220.633 61H233.133V59H220.633V61ZM234.133 60V40.2734H232.133V60H234.133ZM233.133 41.2734H233.172V39.2734H233.133V41.2734ZM234.172 40.2734C234.172 37.424 234.775 35.4783 235.879 34.2118L234.371 32.8976C232.819 34.6779 232.172 37.1854 232.172 40.2734H234.172ZM235.88 34.2104C236.956 32.9715 238.463 32.2891 240.477 32.2891V30.2891C237.959 30.2891 235.872 31.1691 234.37 32.899L235.88 34.2104ZM240.477 32.2891C242.577 32.2891 243.925 32.8677 244.682 33.7409L246.193 32.431C244.919 30.9605 242.907 30.2891 240.477 30.2891V32.2891ZM244.671 33.7285C245.449 34.6553 245.961 36.455 245.961 39.4531H247.961C247.961 36.3575 247.458 33.9384 246.204 32.4433L244.671 33.7285ZM245.961 39.4531V60H247.961V39.4531H245.961ZM246.961 61H259.461V59H246.961V61ZM260.461 60V36.4062H258.461V60H260.461ZM260.461 36.4062C260.461 33.3623 260.101 30.6763 259.358 28.3659L257.454 28.9779C258.118 31.0425 258.461 33.5127 258.461 36.4062H260.461ZM259.357 28.3608C258.618 26.1027 257.567 24.2608 256.122 22.904L254.753 24.3617C255.887 25.4267 256.789 26.9442 257.456 28.9829L259.357 28.3608ZM256.111 22.8939C254.695 21.6029 253.131 20.6251 251.34 20.0279L250.707 21.9252C252.197 22.4218 253.523 23.2409 254.764 24.3718L256.111 22.8939ZM251.34 20.0279C249.588 19.4439 247.566 19.1172 245.359 19.1172V21.1172C247.372 21.1172 249.178 21.4155 250.707 21.9252L251.34 20.0279ZM295.359 22.6562L295.86 21.7908L295.852 21.7859L295.359 22.6562ZM271.023 25.8203L271.738 26.5196L271.738 26.5194L271.023 25.8203ZM266.883 32.2656L265.956 31.8892L265.954 31.8942L266.883 32.2656ZM266.961 48.7109L267.889 48.3395L267.884 48.3273L266.961 48.7109ZM277.664 59.2578L278.04 58.3313L278.028 58.3264L277.664 59.2578ZM296.062 58.7109L296.476 59.6213L296.481 59.6192L296.062 58.7109ZM303.211 53.2812L303.994 53.9026L304.517 53.2442L303.958 52.6164L303.211 53.2812ZM296.57 45.8203L297.317 45.1555L296.559 44.3038L295.814 45.1665L296.57 45.8203ZM277.82 43.7891V42.7891H276.6L276.84 43.9852L277.82 43.7891ZM304.461 43.7891V44.7891H305.341L305.453 43.9162L304.461 43.7891ZM288.719 30.8594L289.18 29.9722L289.159 29.9613L289.138 29.9514L288.719 30.8594ZM291.141 32.9688L291.973 32.414L291.967 32.4058L291.962 32.3977L291.141 32.9688ZM292.508 36.25L292.513 37.25L293.787 37.2432L293.478 36.0075L292.508 36.25ZM277.859 36.3281L276.879 36.132L276.638 37.3347L277.865 37.3281L277.859 36.3281ZM280.477 31.7578L281.101 32.5387L281.107 32.5343L281.112 32.5297L280.477 31.7578ZM305.773 40.0781C305.773 36.0948 304.878 32.4929 303.154 29.2915L301.393 30.2397C302.95 33.1321 303.773 36.4052 303.773 40.0781H305.773ZM303.154 29.2915C301.424 26.0781 298.986 23.6004 295.86 21.7908L294.858 23.5217C297.67 25.1496 299.842 27.3594 301.393 30.2397L303.154 29.2915ZM295.852 21.7859C292.721 20.0147 289.19 19.1172 285.281 19.1172V21.1172C288.872 21.1172 292.06 21.9384 294.867 23.5266L295.852 21.7859ZM285.281 19.1172C282.308 19.1172 279.521 19.6472 276.931 20.7163L277.694 22.565C280.026 21.6028 282.551 21.1172 285.281 21.1172V19.1172ZM276.931 20.7163C274.354 21.7798 272.129 23.2597 270.308 25.1212L271.738 26.5194C273.356 24.8653 275.349 23.5327 277.694 22.565L276.931 20.7163ZM270.309 25.121C268.451 27.0204 267.016 29.282 265.956 31.8892L267.809 32.642C268.781 30.2492 270.081 28.214 271.738 26.5196L270.309 25.121ZM265.954 31.8942C264.885 34.5672 264.398 37.43 264.398 40.4297H266.398C266.398 37.6481 266.849 35.0422 267.811 32.637L265.954 31.8942ZM264.398 40.4297C264.398 43.5137 264.926 46.4196 266.037 49.0945L267.884 48.3273C266.886 45.9241 266.398 43.2832 266.398 40.4297H264.398ZM266.032 49.0823C267.098 51.7473 268.621 54.0136 270.519 55.8711L271.918 54.4414C270.223 52.7833 268.855 50.7527 267.889 48.3395L266.032 49.0823ZM270.519 55.8711C272.419 57.7292 274.684 59.1671 277.3 60.1893L278.028 58.3264C275.645 57.3954 273.612 56.099 271.918 54.4414L270.519 55.8711ZM277.288 60.1843C279.924 61.2552 282.75 61.7422 285.75 61.7422V59.7422C282.969 59.7422 280.404 59.2916 278.04 58.3313L277.288 60.1843ZM285.75 61.7422C289.732 61.7422 293.315 61.0582 296.476 59.6213L295.649 57.8006C292.794 59.098 289.503 59.7422 285.75 59.7422V61.7422ZM296.481 59.6192C299.57 58.1966 302.086 56.309 303.994 53.9026L302.427 52.6599C300.742 54.7847 298.493 56.4909 295.644 57.8026L296.481 59.6192ZM303.958 52.6164L297.317 45.1555L295.823 46.4852L302.464 53.9461L303.958 52.6164ZM295.814 45.1665C293.237 48.1476 290.336 49.5469 287.078 49.5469V51.5469C291.008 51.5469 294.434 49.8212 297.327 46.4742L295.814 45.1665ZM287.078 49.5469C284.913 49.5469 283.122 49.0094 281.587 47.9628L280.46 49.6153C282.363 50.9125 284.556 51.5469 287.078 51.5469V49.5469ZM281.587 47.9628C280.104 46.9521 279.184 45.5099 278.801 43.5929L276.84 43.9852C277.316 46.3651 278.505 48.2822 280.46 49.6153L281.587 47.9628ZM277.82 44.7891H304.461V42.7891H277.82V44.7891ZM305.453 43.9162C305.649 42.3859 305.773 41.083 305.773 40.0781H303.773C303.773 40.9482 303.663 42.1453 303.469 43.6619L305.453 43.9162ZM285.398 31.1172C286.451 31.1172 287.403 31.3534 288.3 31.7673L289.138 29.9514C288.003 29.4278 286.767 29.1172 285.398 29.1172V31.1172ZM288.257 31.7466C289.099 32.184 289.792 32.7818 290.32 33.5398L291.962 32.3977C291.239 31.3588 290.292 30.5504 289.18 29.9722L288.257 31.7466ZM290.309 33.5235C290.851 34.3378 291.243 35.3159 291.538 36.4925L293.478 36.0075C293.147 34.6841 292.68 33.4747 291.973 32.414L290.309 33.5235ZM292.502 35.25L277.854 35.3281L277.865 37.3281L292.513 37.25L292.502 35.25ZM278.84 36.5242C279.193 34.761 279.948 33.4614 281.101 32.5387L279.852 30.9769C278.271 32.2418 277.307 33.989 276.879 36.132L278.84 36.5242ZM281.112 32.5297C282.237 31.6032 283.644 31.1172 285.398 31.1172V29.1172C283.247 29.1172 281.372 29.7249 279.841 30.9859L281.112 32.5297ZM376.414 3.16406V2.16406H375.806L375.526 2.70445L376.414 3.16406ZM360.828 33.2812V34.2812H361.437L361.716 33.7409L360.828 33.2812ZM360.594 33.2812L359.707 33.7436L359.987 34.2812H360.594V33.2812ZM344.891 3.16406L345.777 2.70173L345.497 2.16406H344.891V3.16406ZM331.414 3.16406V2.16406H330.414V3.16406H331.414ZM331.414 60H330.414V61H331.414V60ZM344.695 60V61H345.695V60H344.695ZM344.695 28.7109V27.7109H343.695V28.7109H344.695ZM344.852 28.7109L345.727 28.2274L345.442 27.7109H344.852V28.7109ZM356.375 49.5703L355.5 50.0539L355.785 50.5703H356.375V49.5703ZM364.93 49.5703V50.5703H365.52L365.805 50.0532L364.93 49.5703ZM376.453 28.6719V27.6719H375.863L375.577 28.189L376.453 28.6719ZM376.609 28.6719H377.609V27.6719H376.609V28.6719ZM376.609 60H375.609V61H376.609V60ZM389.891 60V61H390.891V60H389.891ZM389.891 3.16406H390.891V2.16406H389.891V3.16406ZM375.526 2.70445L359.94 32.8216L361.716 33.7409L377.302 3.62367L375.526 2.70445ZM360.828 32.2812H360.594V34.2812H360.828V32.2812ZM361.48 32.8189L345.777 2.70173L344.004 3.62639L359.707 33.7436L361.48 32.8189ZM344.891 2.16406H331.414V4.16406H344.891V2.16406ZM330.414 3.16406V60H332.414V3.16406H330.414ZM331.414 61H344.695V59H331.414V61ZM345.695 60V28.7109H343.695V60H345.695ZM344.695 29.7109H344.852V27.7109H344.695V29.7109ZM343.976 29.1945L355.5 50.0539L357.25 49.0868L345.727 28.2274L343.976 29.1945ZM356.375 50.5703H364.93V48.5703H356.375V50.5703ZM365.805 50.0532L377.329 29.1547L375.577 28.189L364.054 49.0875L365.805 50.0532ZM376.453 29.6719H376.609V27.6719H376.453V29.6719ZM375.609 28.6719V60H377.609V28.6719H375.609ZM376.609 61H389.891V59H376.609V61ZM390.891 60V3.16406H388.891V60H390.891ZM389.891 2.16406H376.414V4.16406H389.891V2.16406ZM425.789 20.8594V19.8594H424.789V20.8594H425.789ZM425.789 25V26H426.789V25H425.789ZM425.633 25L424.877 25.6553L425.176 26H425.633V25ZM402.117 25.7812L402.864 26.4466L402.865 26.4456L402.117 25.7812ZM398.367 32.2656L399.305 32.612L399.31 32.5992L398.367 32.2656ZM398.367 48.75L399.31 48.4164L399.307 48.4076L399.304 48.3989L398.367 48.75ZM402.156 55.1562L402.895 54.4828L402.888 54.4742L402.88 54.4658L402.156 55.1562ZM408.016 59.2578L408.425 58.3453L408.415 58.3411L408.406 58.3371L408.016 59.2578ZM426.297 55.7812V54.7812H425.803L425.503 55.1738L426.297 55.7812ZM426.453 55.7812H427.453V54.7812H426.453V55.7812ZM426.453 60H425.453V61H426.453V60ZM438.328 60V61H439.328V60H438.328ZM438.328 20.8594H439.328V19.8594H438.328V20.8594ZM412.039 33.7891L412.771 34.4708L412.779 34.4617L412.039 33.7891ZM423.914 47.1875L424.646 47.8693L424.654 47.8602L423.914 47.1875ZM424.789 20.8594V25H426.789V20.8594H424.789ZM425.789 24H425.633V26H425.789V24ZM426.388 24.3447C423.384 20.8812 419.513 19.1172 414.852 19.1172V21.1172C418.94 21.1172 422.257 22.6344 424.877 25.6553L426.388 24.3447ZM414.852 19.1172C412.214 19.1172 409.687 19.6535 407.36 20.7336L408.202 22.5476C410.251 21.5965 412.489 21.1172 414.852 21.1172V19.1172ZM407.36 20.7336C405.062 21.8005 403.033 23.2459 401.37 25.1169L402.865 26.4456C404.326 24.801 406.125 23.512 408.202 22.5476L407.36 20.7336ZM401.371 25.1159C399.675 27.0186 398.362 29.2826 397.424 31.932L399.31 32.5992C400.169 30.1705 401.356 28.1377 402.864 26.4466L401.371 25.1159ZM397.429 31.9193C396.444 34.5863 396 37.4406 396 40.4688H398C398 37.6375 398.415 35.0231 399.305 32.612L397.429 31.9193ZM396 40.4688C396 43.5705 396.443 46.4669 397.431 49.1011L399.304 48.3989C398.416 46.0331 398 43.3826 398 40.4688H396ZM397.424 49.0836C398.361 51.7305 399.678 54.0081 401.433 55.8467L402.88 54.4658C401.353 52.8669 400.17 50.8476 399.31 48.4164L397.424 49.0836ZM401.417 55.8297C403.121 57.6998 405.195 59.1487 407.625 60.1786L408.406 58.3371C406.227 57.4138 404.395 56.1284 402.895 54.4828L401.417 55.8297ZM407.607 60.1703C410.02 61.2524 412.663 61.7422 415.438 61.7422V59.7422C412.899 59.7422 410.542 59.2945 408.425 58.3453L407.607 60.1703ZM415.438 61.7422C420.388 61.7422 424.335 59.9925 427.091 56.3887L425.503 55.1738C423.18 58.2106 419.862 59.7422 415.438 59.7422V61.7422ZM426.297 56.7812H426.453V54.7812H426.297V56.7812ZM425.453 55.7812V60H427.453V55.7812H425.453ZM426.453 61H438.328V59H426.453V61ZM439.328 60V20.8594H437.328V60H439.328ZM438.328 19.8594H425.789V21.8594H438.328V19.8594ZM418.016 48.7266C415.808 48.7266 414.094 48.0048 412.74 46.5148L411.26 47.8602C413.031 49.8077 415.302 50.7266 418.016 50.7266V48.7266ZM412.74 46.5148C411.374 45.0121 410.656 43.0402 410.656 40.5078H408.656C408.656 43.4442 409.501 45.9254 411.26 47.8602L412.74 46.5148ZM410.656 40.5078C410.656 37.9718 411.376 35.968 412.771 34.4708L411.307 33.1073C409.499 35.0476 408.656 37.5751 408.656 40.5078H410.656ZM412.779 34.4617C414.14 32.965 415.896 32.2109 418.055 32.2109V30.2109C415.37 30.2109 413.063 31.1756 411.299 33.1164L412.779 34.4617ZM418.055 32.2109C419.382 32.2109 420.606 32.5832 421.704 33.2699L422.764 31.5739C421.363 30.698 419.774 30.2109 418.055 30.2109V32.2109ZM421.704 33.2699C422.789 33.9478 423.683 34.9376 424.309 36.1894L426.098 35.295C425.317 33.7342 424.18 32.4585 422.764 31.5739L421.704 33.2699ZM424.309 36.1894C424.941 37.4534 425.297 38.9014 425.297 40.5078H427.297C427.297 38.5986 426.872 36.8435 426.098 35.295L424.309 36.1894ZM425.297 40.5078C425.297 43.0283 424.547 45.0044 423.174 46.5148L424.654 47.8602C426.406 45.9331 427.297 43.4561 427.297 40.5078H425.297ZM423.182 46.5058C421.776 48.0151 420.091 48.7266 418.016 48.7266V50.7266C420.628 50.7266 422.849 49.7974 424.646 47.8692L423.182 46.5058ZM466.141 20.8203L466.465 21.7663L466.473 21.7633L466.141 20.8203ZM462.273 22.8125L461.695 21.997L461.686 22.0031L461.678 22.0094L462.273 22.8125ZM458.992 26.0938V27.0938H459.489L459.789 26.6976L458.992 26.0938ZM458.836 26.0938H457.836V27.0938H458.836V26.0938ZM458.836 20.8594H459.836V19.8594H458.836V20.8594ZM446.336 20.8594V19.8594H445.336V20.8594H446.336ZM446.336 60H445.336V61H446.336V60ZM458.836 60V61H459.836V60H458.836ZM470.75 33.6328L470.7 34.6316L471.75 34.6841V33.6328H470.75ZM470.75 20.1562H471.75V19.1562H470.75V20.1562ZM470.32 19.1172C468.766 19.1172 467.247 19.3693 465.808 19.8773L466.473 21.7633C467.69 21.3338 468.984 21.1172 470.32 21.1172V19.1172ZM465.816 19.8744C464.356 20.375 462.982 21.0837 461.695 21.997L462.852 23.628C463.987 22.8225 465.191 22.2031 466.465 21.7663L465.816 19.8744ZM461.678 22.0094C460.385 22.9683 459.225 24.1307 458.195 25.4899L459.789 26.6976C460.713 25.4787 461.74 24.4536 462.869 23.6156L461.678 22.0094ZM458.992 25.0938H458.836V27.0938H458.992V25.0938ZM459.836 26.0938V20.8594H457.836V26.0938H459.836ZM458.836 19.8594H446.336V21.8594H458.836V19.8594ZM445.336 20.8594V60H447.336V20.8594H445.336ZM446.336 61H458.836V59H446.336V61ZM459.836 60V42.4219H457.836V60H459.836ZM459.836 42.4219C459.836 40.8248 460.126 39.4608 460.707 38.2988L458.918 37.4043C458.171 38.8985 457.836 40.5815 457.836 42.4219H459.836ZM460.707 38.2988C461.272 37.1693 462.137 36.2911 463.355 35.5948L462.363 33.8583C460.847 34.7245 459.681 35.8776 458.918 37.4043L460.707 38.2988ZM463.355 35.5948C464.541 34.9175 466.002 34.5547 467.82 34.5547V32.5547C465.733 32.5547 463.912 32.9731 462.363 33.8583L463.355 35.5948ZM467.82 34.5547C468.97 34.5547 469.928 34.593 470.7 34.6316L470.8 32.6341C470.009 32.5945 469.015 32.5547 467.82 32.5547V34.5547ZM471.75 33.6328V20.1562H469.75V33.6328H471.75ZM470.75 19.1562C470.799 19.1562 470.829 19.1614 470.804 19.1582C470.796 19.1572 470.786 19.1558 470.769 19.1535C470.754 19.1514 470.733 19.1484 470.711 19.1455C470.621 19.1335 470.483 19.1172 470.32 19.1172V21.1172C470.353 21.1172 470.39 21.1204 470.447 21.1279C470.462 21.1299 470.475 21.1318 470.493 21.1343C470.509 21.1365 470.53 21.1394 470.551 21.1421C470.583 21.1462 470.662 21.1562 470.75 21.1562V19.1562ZM492.547 45.6641L493.418 45.1728L493.131 44.6641H492.547V45.6641ZM500.633 60L499.762 60.4913L500.049 61H500.633V60ZM514.5 60V61H516.23L515.367 59.5008L514.5 60ZM500.75 36.1328L499.999 35.4723L499.526 36.0107L499.884 36.632L500.75 36.1328ZM514.188 20.8594L514.938 21.5199L516.399 19.8594H514.188V20.8594ZM499.695 20.8594V19.8594H499.241L498.942 20.2015L499.695 20.8594ZM488.367 33.8281V34.8281H488.821L489.12 34.486L488.367 33.8281ZM488.211 33.8281H487.211V34.8281H488.211V33.8281ZM488.211 1.09375H489.211V0.09375H488.211V1.09375ZM475.711 1.09375V0.09375H474.711V1.09375H475.711ZM475.711 60H474.711V61H475.711V60ZM488.211 60V61H489.211V60H488.211ZM488.211 50.3516L487.461 49.6895L487.211 49.9731V50.3516H488.211ZM492.352 45.6641V44.6641H491.901L491.602 45.002L492.352 45.6641ZM491.676 46.1553L499.762 60.4913L501.504 59.5087L493.418 45.1728L491.676 46.1553ZM500.633 61H514.5V59H500.633V61ZM515.367 59.5008L501.616 35.6336L499.884 36.632L513.633 60.4992L515.367 59.5008ZM501.501 36.7934L514.938 21.5199L513.437 20.1988L499.999 35.4723L501.501 36.7934ZM514.188 19.8594H499.695V21.8594H514.188V19.8594ZM498.942 20.2015L487.614 33.1703L489.12 34.486L500.448 21.5172L498.942 20.2015ZM488.367 32.8281H488.211V34.8281H488.367V32.8281ZM489.211 33.8281V1.09375H487.211V33.8281H489.211ZM488.211 0.09375H475.711V2.09375H488.211V0.09375ZM474.711 1.09375V60H476.711V1.09375H474.711ZM475.711 61H488.211V59H475.711V61ZM489.211 60V50.3516H487.211V60H489.211ZM488.96 51.0136L493.101 46.3261L491.602 45.002L487.461 49.6895L488.96 51.0136ZM492.352 46.6641H492.547V44.6641H492.352V46.6641ZM544.344 22.6562L544.845 21.7908L544.836 21.7859L544.344 22.6562ZM520.008 25.8203L520.723 26.5196L520.723 26.5194L520.008 25.8203ZM515.867 32.2656L514.941 31.8892L514.939 31.8942L515.867 32.2656ZM515.945 48.7109L516.874 48.3395L516.869 48.3273L515.945 48.7109ZM526.648 59.2578L527.025 58.3313L527.012 58.3264L526.648 59.2578ZM545.047 58.7109L545.461 59.6213L545.465 59.6192L545.047 58.7109ZM552.195 53.2812L552.979 53.9026L553.501 53.2442L552.942 52.6164L552.195 53.2812ZM545.555 45.8203L546.302 45.1555L545.544 44.3038L544.798 45.1665L545.555 45.8203ZM526.805 43.7891V42.7891H525.585L525.824 43.9852L526.805 43.7891ZM553.445 43.7891V44.7891H554.325L554.437 43.9162L553.445 43.7891ZM537.703 30.8594L538.164 29.9722L538.144 29.9613L538.122 29.9514L537.703 30.8594ZM540.125 32.9688L540.957 32.414L540.952 32.4058L540.946 32.3977L540.125 32.9688ZM541.492 36.25L541.497 37.25L542.771 37.2432L542.462 36.0075L541.492 36.25ZM526.844 36.3281L525.863 36.132L525.623 37.3347L526.849 37.3281L526.844 36.3281ZM529.461 31.7578L530.086 32.5387L530.091 32.5343L530.097 32.5297L529.461 31.7578ZM554.758 40.0781C554.758 36.0948 553.862 32.4929 552.138 29.2915L550.377 30.2397C551.935 33.1321 552.758 36.4052 552.758 40.0781H554.758ZM552.138 29.2915C550.408 26.0781 547.97 23.6004 544.845 21.7908L543.843 23.5217C546.655 25.1496 548.826 27.3594 550.377 30.2397L552.138 29.2915ZM544.836 21.7859C541.706 20.0147 538.175 19.1172 534.266 19.1172V21.1172C537.857 21.1172 541.044 21.9384 543.851 23.5266L544.836 21.7859ZM534.266 19.1172C531.293 19.1172 528.506 19.6472 525.915 20.7163L526.678 22.565C529.01 21.6028 531.536 21.1172 534.266 21.1172V19.1172ZM525.915 20.7163C523.338 21.7798 521.113 23.2597 519.293 25.1212L520.723 26.5194C522.34 24.8653 524.334 23.5327 526.678 22.565L525.915 20.7163ZM519.293 25.121C517.435 27.0204 516 29.282 514.941 31.8892L516.794 32.642C517.766 30.2492 519.065 28.214 520.723 26.5196L519.293 25.121ZM514.939 31.8942C513.87 34.5672 513.383 37.43 513.383 40.4297H515.383C515.383 37.6481 515.834 35.0422 516.796 32.637L514.939 31.8942ZM513.383 40.4297C513.383 43.5137 513.911 46.4196 515.022 49.0945L516.869 48.3273C515.871 45.9241 515.383 43.2832 515.383 40.4297H513.383ZM515.017 49.0823C516.083 51.7473 517.605 54.0136 519.504 55.8711L520.902 54.4414C519.207 52.7833 517.839 50.7527 516.874 48.3395L515.017 49.0823ZM519.504 55.8711C521.403 57.7292 523.668 59.1671 526.285 60.1893L527.012 58.3264C524.629 57.3954 522.597 56.099 520.902 54.4414L519.504 55.8711ZM526.272 60.1843C528.908 61.2552 531.734 61.7422 534.734 61.7422V59.7422C531.953 59.7422 529.389 59.2916 527.025 58.3313L526.272 60.1843ZM534.734 61.7422C538.716 61.7422 542.299 61.0582 545.461 59.6213L544.633 57.8006C541.779 59.098 538.487 59.7422 534.734 59.7422V61.7422ZM545.465 59.6192C548.554 58.1966 551.07 56.309 552.979 53.9026L551.412 52.6599C549.727 54.7847 547.477 56.4909 544.629 57.8026L545.465 59.6192ZM552.942 52.6164L546.302 45.1555L544.808 46.4852L551.448 53.9461L552.942 52.6164ZM544.798 45.1665C542.222 48.1476 539.32 49.5469 536.062 49.5469V51.5469C539.992 51.5469 543.419 49.8212 546.311 46.4742L544.798 45.1665ZM536.062 49.5469C533.897 49.5469 532.106 49.0094 530.571 47.9628L529.444 49.6153C531.347 50.9125 533.54 51.5469 536.062 51.5469V49.5469ZM530.571 47.9628C529.089 46.9521 528.169 45.5099 527.785 43.5929L525.824 43.9852C526.3 46.3651 527.489 48.2822 529.444 49.6153L530.571 47.9628ZM526.805 44.7891H553.445V42.7891H526.805V44.7891ZM554.437 43.9162C554.633 42.3859 554.758 41.083 554.758 40.0781H552.758C552.758 40.9482 552.648 42.1453 552.453 43.6619L554.437 43.9162ZM534.383 31.1172C535.436 31.1172 536.387 31.3534 537.284 31.7673L538.122 29.9514C536.988 29.4278 535.752 29.1172 534.383 29.1172V31.1172ZM537.242 31.7466C538.083 32.184 538.777 32.7818 539.304 33.5398L540.946 32.3977C540.223 31.3588 539.276 30.5504 538.164 29.9722L537.242 31.7466ZM539.293 33.5235C539.836 34.3378 540.228 35.3159 540.522 36.4925L542.462 36.0075C542.131 34.6841 541.664 33.4747 540.957 32.414L539.293 33.5235ZM541.487 35.25L526.838 35.3281L526.849 37.3281L541.497 37.25L541.487 35.25ZM527.824 36.5242C528.177 34.761 528.932 33.4614 530.086 32.5387L528.836 30.9769C527.255 32.2418 526.292 33.989 525.863 36.132L527.824 36.5242ZM530.097 32.5297C531.222 31.6032 532.628 31.1172 534.383 31.1172V29.1172C532.231 29.1172 530.356 29.7249 528.825 30.9859L530.097 32.5297ZM583.719 58.0469L584.208 58.919L584.93 58.5142L584.667 57.7294L583.719 58.0469ZM580.633 48.8281L581.581 48.5107L581.211 47.4053L580.175 47.9392L580.633 48.8281ZM573.797 31.0547V30.0547H572.797V31.0547H573.797ZM583.289 31.0547V32.0547H584.289V31.0547H583.289ZM583.289 20.8594H584.289V19.8594H583.289V20.8594ZM573.797 20.8594H572.797V21.8594H573.797V20.8594ZM573.797 7.03125H574.797V5.91937L573.691 6.03685L573.797 7.03125ZM561.297 8.35938L561.191 7.36497L560.297 7.46V8.35938H561.297ZM561.297 20.8594V21.8594H562.297V20.8594H561.297ZM556.883 20.8594V19.8594H555.883V20.8594H556.883ZM556.883 31.0547H555.883V32.0547H556.883V31.0547ZM561.297 31.0547H562.297V30.0547H561.297V31.0547ZM564.422 57.4219L565.154 56.7409L565.148 56.7343L565.142 56.7277L564.422 57.4219ZM572.781 61.7422C575.319 61.7422 577.46 61.5456 579.195 61.0379L578.633 59.1184C577.165 59.5481 575.243 59.7422 572.781 59.7422V61.7422ZM579.195 61.0379C580.869 60.5478 582.541 59.8543 584.208 58.919L583.229 57.1747C581.694 58.0364 580.162 58.671 578.633 59.1184L579.195 61.0379ZM584.667 57.7294L581.581 48.5107L579.685 49.1456L582.77 58.3643L584.667 57.7294ZM580.175 47.9392C579.019 48.5348 577.886 48.8047 576.766 48.8047V50.8047C578.224 50.8047 579.669 50.4496 581.091 49.7171L580.175 47.9392ZM576.766 48.8047C575.882 48.8047 575.503 48.5229 575.298 48.1509L573.546 49.1147C574.2 50.3052 575.383 50.8047 576.766 50.8047V48.8047ZM575.298 48.1509C574.988 47.5867 574.797 46.6919 574.797 45.3516H572.797C572.797 46.8237 572.997 48.1164 573.546 49.1147L575.298 48.1509ZM574.797 45.3516V31.0547H572.797V45.3516H574.797ZM573.797 32.0547H583.289V30.0547H573.797V32.0547ZM584.289 31.0547V20.8594H582.289V31.0547H584.289ZM583.289 19.8594H573.797V21.8594H583.289V19.8594ZM574.797 20.8594V7.03125H572.797V20.8594H574.797ZM573.691 6.03685L561.191 7.36497L561.403 9.35378L573.903 8.02565L573.691 6.03685ZM560.297 8.35938V20.8594H562.297V8.35938H560.297ZM561.297 19.8594H556.883V21.8594H561.297V19.8594ZM555.883 20.8594V31.0547H557.883V20.8594H555.883ZM556.883 32.0547H561.297V30.0547H556.883V32.0547ZM560.297 31.0547V47.6953H562.297V31.0547H560.297ZM560.297 47.6953C560.297 52.1341 561.345 55.6721 563.702 58.116L565.142 56.7277C563.28 54.7966 562.297 51.8503 562.297 47.6953H560.297ZM563.69 58.1028C565.981 60.567 569.038 61.7422 572.781 61.7422V59.7422C569.493 59.7422 567.004 58.7298 565.154 56.7409L563.69 58.1028ZM700.438 29.7656H699.438V30.5308L700.176 30.7309L700.438 29.7656ZM700.438 29.6094L700.07 28.6792L699.438 28.929V29.6094H700.438ZM708.25 20.7031L709.216 20.9608L709.22 20.9456L709.224 20.9304L708.25 20.7031ZM704.07 6.83594L704.693 6.05311L704.682 6.04437L704.67 6.03594L704.07 6.83594ZM698.211 4.10156L698.469 3.13532L698.465 3.13428L698.211 4.10156ZM668.523 3.16406V2.16406H667.523V3.16406H668.523ZM668.523 60H667.523V61H668.523V60ZM710.477 50.5078L711.402 50.8857L711.406 50.8776L711.409 50.8693L710.477 50.5078ZM708.836 35L709.642 34.4081L709.637 34.401L709.631 34.394L708.836 35ZM681.648 14.9609V13.9609H680.648V14.9609H681.648ZM693.133 24.4141L693.698 25.2389L693.709 25.231L693.133 24.4141ZM681.648 25.8203H680.648V26.8203H681.648V25.8203ZM681.648 48.3203H680.648V49.3203H681.648V48.3203ZM681.648 36.3281V35.3281H680.648V36.3281H681.648ZM697.078 44.9609L696.193 44.4952L696.188 44.5044L696.184 44.5137L697.078 44.9609ZM692.742 47.9297L692.517 46.9553L692.5 46.9594L692.482 46.9641L692.742 47.9297ZM701.438 29.7656V29.6094H699.438V29.7656H701.438ZM700.805 30.5395C702.389 29.9143 703.774 29.0764 704.956 28.0639L703.654 26.5454C702.648 27.408 701.455 28.1326 700.07 28.6792L700.805 30.5395ZM704.956 28.0639C706.135 27.0531 707.072 25.9063 707.758 24.6628L706.007 23.6966C705.443 24.7187 704.662 25.6812 703.654 26.5454L704.956 28.0639ZM707.758 24.6628C708.431 23.4438 708.888 22.1927 709.216 20.9608L707.284 20.4455C706.987 21.5573 706.585 22.65 706.007 23.6966L707.758 24.6628ZM709.224 20.9304C709.513 19.6917 709.68 18.4044 709.68 17.0703H707.68C707.68 18.2363 707.534 19.3708 707.276 20.4759L709.224 20.9304ZM709.68 17.0703C709.68 14.7626 709.267 12.6649 708.418 10.7971L706.597 11.6247C707.311 13.1945 707.68 15.003 707.68 17.0703H709.68ZM708.418 10.7971C707.57 8.93088 706.337 7.36015 704.693 6.05311L703.448 7.61876C704.851 8.7336 705.883 10.0535 706.597 11.6247L708.418 10.7971ZM704.67 6.03594C702.992 4.77725 700.919 3.78873 698.469 3.13533L697.953 5.0678C700.191 5.6644 702.024 6.55088 703.47 7.63594L704.67 6.03594ZM698.465 3.13428C695.981 2.48278 693.158 2.16406 689.969 2.16406V4.16406C693.029 4.16406 695.675 4.47034 697.957 5.06884L698.465 3.13428ZM689.969 2.16406H668.523V4.16406H689.969V2.16406ZM667.523 3.16406V60H669.523V3.16406H667.523ZM668.523 61H693.445V59H668.523V61ZM693.445 61C696.502 61 699.229 60.5977 701.691 59.7768L701.059 57.8794C698.834 58.6211 696.326 59 693.445 59V61ZM701.691 59.7768C704.156 58.9552 706.202 57.7526 707.805 56.2338L706.429 54.7819C705.064 56.0755 703.282 57.1385 701.059 57.8794L701.691 59.7768ZM707.805 56.2338C709.404 54.7188 710.574 52.9159 711.402 50.8857L709.551 50.1299C708.817 51.9279 707.799 53.4843 706.429 54.7819L707.805 56.2338ZM711.409 50.8693C712.199 48.8311 712.609 46.5982 712.609 44.1406H710.609C710.609 46.3706 710.238 48.3564 709.544 50.1463L711.409 50.8693ZM712.609 44.1406C712.609 40.3646 711.621 37.1028 709.642 34.4081L708.03 35.5919C709.723 37.8972 710.609 40.7292 710.609 44.1406H712.609ZM709.631 34.394C707.596 31.7227 704.615 29.861 700.699 28.8004L700.176 30.7309C703.76 31.7015 706.326 33.3554 708.041 35.606L709.631 34.394ZM681.648 15.9609H687.508V13.9609H681.648V15.9609ZM687.508 15.9609C690 15.9609 691.644 16.4207 692.634 17.1943L693.866 15.6182C692.356 14.4386 690.172 13.9609 687.508 13.9609V15.9609ZM692.634 17.1943C693.639 17.9795 694.164 19.0158 694.164 20.3906H696.164C696.164 18.4061 695.361 16.7861 693.866 15.6182L692.634 17.1943ZM694.164 20.3906C694.164 21.8321 693.612 22.8519 692.556 23.5971L693.709 25.231C695.31 24.1012 696.164 22.4648 696.164 20.3906H694.164ZM692.567 23.5893C691.405 24.3861 689.898 24.8203 687.938 24.8203V26.8203C690.196 26.8203 692.126 26.317 693.698 25.2388L692.567 23.5893ZM687.938 24.8203H681.648V26.8203H687.938V24.8203ZM682.648 25.8203V14.9609H680.648V25.8203H682.648ZM689.344 47.3203H681.648V49.3203H689.344V47.3203ZM682.648 48.3203V36.3281H680.648V48.3203H682.648ZM681.648 37.3281H689.344V35.3281H681.648V37.3281ZM689.344 37.3281C691.972 37.3281 693.823 37.8583 694.98 38.7581L696.208 37.1794C694.552 35.8917 692.184 35.3281 689.344 35.3281V37.3281ZM694.98 38.7581C696.134 39.6557 696.703 40.8445 696.703 42.3438H698.703C698.703 40.2493 697.866 38.4693 696.208 37.1794L694.98 38.7581ZM696.703 42.3438C696.703 43.197 696.508 43.8965 696.193 44.4952L697.963 45.4267C698.429 44.541 698.703 43.5218 698.703 42.3438H696.703ZM696.184 44.5137C695.88 45.1206 695.424 45.6122 694.825 45.9904L695.893 47.6814C696.779 47.1222 697.495 46.3638 697.973 45.4081L696.184 44.5137ZM694.825 45.9904C694.168 46.4054 693.412 46.7487 692.517 46.9553L692.967 48.9041C694.103 48.6419 695.066 48.2039 695.893 47.6814L694.825 45.9904ZM692.482 46.9641C691.575 47.2083 690.535 47.3203 689.344 47.3203V49.3203C690.653 49.3203 691.878 49.198 693.002 48.8953L692.482 46.9641ZM746.141 22.6562L746.642 21.7908L746.633 21.7859L746.141 22.6562ZM721.805 25.8203L722.52 26.5196L722.52 26.5194L721.805 25.8203ZM717.664 32.2656L716.738 31.8892L716.736 31.8942L717.664 32.2656ZM717.742 48.7109L718.671 48.3395L718.666 48.3273L717.742 48.7109ZM728.445 59.2578L728.822 58.3313L728.809 58.3264L728.445 59.2578ZM746.844 58.7109L747.258 59.6213L747.262 59.6192L746.844 58.7109ZM753.992 53.2812L754.776 53.9026L755.298 53.2442L754.739 52.6164L753.992 53.2812ZM747.352 45.8203L748.099 45.1555L747.34 44.3038L746.595 45.1665L747.352 45.8203ZM728.602 43.7891V42.7891H727.382L727.621 43.9852L728.602 43.7891ZM755.242 43.7891V44.7891H756.122L756.234 43.9162L755.242 43.7891ZM739.5 30.8594L739.961 29.9722L739.94 29.9613L739.919 29.9514L739.5 30.8594ZM741.922 32.9688L742.754 32.414L742.748 32.4058L742.743 32.3977L741.922 32.9688ZM743.289 36.25L743.294 37.25L744.568 37.2432L744.259 36.0075L743.289 36.25ZM728.641 36.3281L727.66 36.132L727.419 37.3347L728.646 37.3281L728.641 36.3281ZM731.258 31.7578L731.883 32.5387L731.888 32.5343L731.893 32.5297L731.258 31.7578ZM756.555 40.0781C756.555 36.0948 755.659 32.4929 753.935 29.2915L752.174 30.2397C753.732 33.1321 754.555 36.4052 754.555 40.0781H756.555ZM753.935 29.2915C752.205 26.0781 749.767 23.6004 746.642 21.7908L745.64 23.5217C748.452 25.1496 750.623 27.3594 752.174 30.2397L753.935 29.2915ZM746.633 21.7859C743.503 20.0147 739.971 19.1172 736.062 19.1172V21.1172C739.654 21.1172 742.841 21.9384 745.648 23.5266L746.633 21.7859ZM736.062 19.1172C733.089 19.1172 730.303 19.6472 727.712 20.7163L728.475 22.565C730.807 21.6028 733.332 21.1172 736.062 21.1172V19.1172ZM727.712 20.7163C725.135 21.7798 722.91 23.2597 721.09 25.1212L722.52 26.5194C724.137 24.8653 726.13 23.5327 728.475 22.565L727.712 20.7163ZM721.09 25.121C719.232 27.0204 717.797 29.282 716.738 31.8892L718.591 32.642C719.563 30.2492 720.862 28.214 722.52 26.5196L721.09 25.121ZM716.736 31.8942C715.666 34.5672 715.18 37.43 715.18 40.4297H717.18C717.18 37.6481 717.63 35.0422 718.593 32.637L716.736 31.8942ZM715.18 40.4297C715.18 43.5137 715.708 46.4196 716.819 49.0945L718.666 48.3273C717.667 45.9241 717.18 43.2832 717.18 40.4297H715.18ZM716.814 49.0823C717.88 51.7473 719.402 54.0136 721.301 55.8711L722.699 54.4414C721.004 52.7833 719.636 50.7527 718.671 48.3395L716.814 49.0823ZM721.301 55.8711C723.2 57.7292 725.465 59.1671 728.081 60.1893L728.809 58.3264C726.426 57.3954 724.394 56.099 722.699 54.4414L721.301 55.8711ZM728.069 60.1843C730.705 61.2552 733.531 61.7422 736.531 61.7422V59.7422C733.75 59.7422 731.185 59.2916 728.822 58.3313L728.069 60.1843ZM736.531 61.7422C740.513 61.7422 744.096 61.0582 747.258 59.6213L746.43 57.8006C743.576 59.098 740.284 59.7422 736.531 59.7422V61.7422ZM747.262 59.6192C750.351 58.1966 752.867 56.309 754.776 53.9026L753.209 52.6599C751.523 54.7847 749.274 56.4909 746.425 57.8026L747.262 59.6192ZM754.739 52.6164L748.099 45.1555L746.605 46.4852L753.245 53.9461L754.739 52.6164ZM746.595 45.1665C744.019 48.1476 741.117 49.5469 737.859 49.5469V51.5469C741.789 51.5469 745.216 49.8212 748.108 46.4742L746.595 45.1665ZM737.859 49.5469C735.694 49.5469 733.903 49.0094 732.368 47.9628L731.241 49.6153C733.144 50.9125 735.337 51.5469 737.859 51.5469V49.5469ZM732.368 47.9628C730.886 46.9521 729.966 45.5099 729.582 43.5929L727.621 43.9852C728.097 46.3651 729.286 48.2822 731.241 49.6153L732.368 47.9628ZM728.602 44.7891H755.242V42.7891H728.602V44.7891ZM756.234 43.9162C756.43 42.3859 756.555 41.083 756.555 40.0781H754.555C754.555 40.9482 754.445 42.1453 754.25 43.6619L756.234 43.9162ZM736.18 31.1172C737.233 31.1172 738.184 31.3534 739.081 31.7673L739.919 29.9514C738.785 29.4278 737.549 29.1172 736.18 29.1172V31.1172ZM739.039 31.7466C739.88 32.184 740.574 32.7818 741.101 33.5398L742.743 32.3977C742.02 31.3588 741.073 30.5504 739.961 29.9722L739.039 31.7466ZM741.09 33.5235C741.633 34.3378 742.025 35.3159 742.319 36.4925L744.259 36.0075C743.928 34.6841 743.461 33.4747 742.754 32.414L741.09 33.5235ZM743.284 35.25L728.635 35.3281L728.646 37.3281L743.294 37.25L743.284 35.25ZM729.621 36.5242C729.974 34.761 730.729 33.4614 731.883 32.5387L730.633 30.9769C729.052 32.2418 728.089 33.989 727.66 36.132L729.621 36.5242ZM731.893 32.5297C733.019 31.6032 734.425 31.1172 736.18 31.1172V29.1172C734.028 29.1172 732.153 29.7249 730.622 30.9859L731.893 32.5297ZM788.602 20.8594V19.8594H787.602V20.8594H788.602ZM788.602 25V26H789.602V25H788.602ZM788.445 25L787.69 25.6553L787.989 26H788.445V25ZM764.93 25.7812L765.676 26.4466L765.677 26.4456L764.93 25.7812ZM761.18 32.2656L762.118 32.612L762.122 32.5992L761.18 32.2656ZM761.18 48.75L762.122 48.4164L762.119 48.4076L762.116 48.3989L761.18 48.75ZM764.969 55.1562L765.708 54.4828L765.7 54.4742L765.692 54.4658L764.969 55.1562ZM770.828 59.2578L771.237 58.3453L771.228 58.3411L771.218 58.3371L770.828 59.2578ZM789.109 55.7812V54.7812H788.615L788.315 55.1738L789.109 55.7812ZM789.266 55.7812H790.266V54.7812H789.266V55.7812ZM789.266 60H788.266V61H789.266V60ZM801.141 60V61H802.141V60H801.141ZM801.141 20.8594H802.141V19.8594H801.141V20.8594ZM774.852 33.7891L775.583 34.4708L775.591 34.4617L774.852 33.7891ZM786.727 47.1875L787.458 47.8693L787.466 47.8602L786.727 47.1875ZM787.602 20.8594V25H789.602V20.8594H787.602ZM788.602 24H788.445V26H788.602V24ZM789.201 24.3447C786.196 20.8812 782.326 19.1172 777.664 19.1172V21.1172C781.752 21.1172 785.069 22.6344 787.69 25.6553L789.201 24.3447ZM777.664 19.1172C775.026 19.1172 772.499 19.6535 770.173 20.7336L771.015 22.5476C773.063 21.5965 775.302 21.1172 777.664 21.1172V19.1172ZM770.173 20.7336C767.875 21.8005 765.845 23.2459 764.182 25.1169L765.677 26.4456C767.139 24.801 768.938 23.512 771.015 22.5476L770.173 20.7336ZM764.183 25.1159C762.487 27.0186 761.174 29.2826 760.237 31.932L762.122 32.5992C762.982 30.1705 764.169 28.1377 765.676 26.4466L764.183 25.1159ZM760.242 31.9193C759.257 34.5863 758.812 37.4406 758.812 40.4688H760.812C760.812 37.6375 761.228 35.0231 762.118 32.612L760.242 31.9193ZM758.812 40.4688C758.812 43.5705 759.255 46.4669 760.243 49.1011L762.116 48.3989C761.229 46.0331 760.812 43.3826 760.812 40.4688H758.812ZM760.237 49.0836C761.174 51.7305 762.49 54.0081 764.245 55.8467L765.692 54.4658C764.166 52.8669 762.983 50.8476 762.122 48.4164L760.237 49.0836ZM764.23 55.8297C765.933 57.6998 768.008 59.1487 770.438 60.1786L771.218 58.3371C769.039 57.4138 767.207 56.1284 765.708 54.4828L764.23 55.8297ZM770.419 60.1703C772.833 61.2524 775.476 61.7422 778.25 61.7422V59.7422C775.712 59.7422 773.355 59.2945 771.237 58.3453L770.419 60.1703ZM778.25 61.7422C783.201 61.7422 787.148 59.9925 789.904 56.3887L788.315 55.1738C785.993 58.2106 782.674 59.7422 778.25 59.7422V61.7422ZM789.109 56.7812H789.266V54.7812H789.109V56.7812ZM788.266 55.7812V60H790.266V55.7812H788.266ZM789.266 61H801.141V59H789.266V61ZM802.141 60V20.8594H800.141V60H802.141ZM801.141 19.8594H788.602V21.8594H801.141V19.8594ZM780.828 48.7266C778.62 48.7266 776.907 48.0048 775.552 46.5148L774.073 47.8602C775.843 49.8077 778.114 50.7266 780.828 50.7266V48.7266ZM775.552 46.5148C774.186 45.0121 773.469 43.0402 773.469 40.5078H771.469C771.469 43.4442 772.314 45.9254 774.073 47.8602L775.552 46.5148ZM773.469 40.5078C773.469 37.9718 774.188 35.968 775.583 34.4708L774.12 33.1073C772.312 35.0476 771.469 37.5751 771.469 40.5078H773.469ZM775.591 34.4617C776.952 32.965 778.708 32.2109 780.867 32.2109V30.2109C778.182 30.2109 775.876 31.1756 774.112 33.1164L775.591 34.4617ZM780.867 32.2109C782.194 32.2109 783.418 32.5832 784.517 33.2699L785.577 31.5739C784.176 30.698 782.587 30.2109 780.867 30.2109V32.2109ZM784.517 33.2699C785.602 33.9478 786.495 34.9376 787.121 36.1894L788.91 35.295C788.13 33.7342 786.992 32.4585 785.577 31.5739L784.517 33.2699ZM787.121 36.1894C787.753 37.4534 788.109 38.9014 788.109 40.5078H790.109C790.109 38.5986 789.684 36.8435 788.91 35.295L787.121 36.1894ZM788.109 40.5078C788.109 43.0283 787.36 45.0044 785.987 46.5148L787.466 47.8602C789.218 45.9331 790.109 43.4561 790.109 40.5078H788.109ZM785.995 46.5058C784.589 48.0151 782.903 48.7266 780.828 48.7266V50.7266C783.44 50.7266 785.661 49.7974 787.458 47.8692L785.995 46.5058ZM832.859 58.0469L833.349 58.919L834.07 58.5142L833.808 57.7294L832.859 58.0469ZM829.773 48.8281L830.722 48.5107L830.352 47.4053L829.315 47.9392L829.773 48.8281ZM822.938 31.0547V30.0547H821.938V31.0547H822.938ZM832.43 31.0547V32.0547H833.43V31.0547H832.43ZM832.43 20.8594H833.43V19.8594H832.43V20.8594ZM822.938 20.8594H821.938V21.8594H822.938V20.8594ZM822.938 7.03125H823.938V5.91937L822.832 6.03685L822.938 7.03125ZM810.438 8.35938L810.332 7.36497L809.438 7.46V8.35938H810.438ZM810.438 20.8594V21.8594H811.438V20.8594H810.438ZM806.023 20.8594V19.8594H805.023V20.8594H806.023ZM806.023 31.0547H805.023V32.0547H806.023V31.0547ZM810.438 31.0547H811.438V30.0547H810.438V31.0547ZM813.562 57.4219L814.295 56.7409L814.289 56.7343L814.282 56.7277L813.562 57.4219ZM821.922 61.7422C824.46 61.7422 826.601 61.5456 828.336 61.0379L827.774 59.1184C826.306 59.5481 824.384 59.7422 821.922 59.7422V61.7422ZM828.336 61.0379C830.01 60.5478 831.681 59.8543 833.349 58.919L832.37 57.1747C830.834 58.0364 829.302 58.671 827.774 59.1184L828.336 61.0379ZM833.808 57.7294L830.722 48.5107L828.825 49.1456L831.911 58.3643L833.808 57.7294ZM829.315 47.9392C828.159 48.5348 827.026 48.8047 825.906 48.8047V50.8047C827.364 50.8047 828.81 50.4496 830.231 49.7171L829.315 47.9392ZM825.906 48.8047C825.023 48.8047 824.643 48.5229 824.439 48.1509L822.686 49.1147C823.341 50.3052 824.524 50.8047 825.906 50.8047V48.8047ZM824.439 48.1509C824.128 47.5867 823.938 46.6919 823.938 45.3516H821.938C821.938 46.8237 822.137 48.1164 822.686 49.1147L824.439 48.1509ZM823.938 45.3516V31.0547H821.938V45.3516H823.938ZM822.938 32.0547H832.43V30.0547H822.938V32.0547ZM833.43 31.0547V20.8594H831.43V31.0547H833.43ZM832.43 19.8594H822.938V21.8594H832.43V19.8594ZM823.938 20.8594V7.03125H821.938V20.8594H823.938ZM822.832 6.03685L810.332 7.36497L810.543 9.35378L823.043 8.02565L822.832 6.03685ZM809.438 8.35938V20.8594H811.438V8.35938H809.438ZM810.438 19.8594H806.023V21.8594H810.438V19.8594ZM805.023 20.8594V31.0547H807.023V20.8594H805.023ZM806.023 32.0547H810.438V30.0547H806.023V32.0547ZM809.438 31.0547V47.6953H811.438V31.0547H809.438ZM809.438 47.6953C809.438 52.1341 810.486 55.6721 812.843 58.116L814.282 56.7277C812.42 54.7966 811.438 51.8503 811.438 47.6953H809.438ZM812.83 58.1028C815.121 60.567 818.179 61.7422 821.922 61.7422V59.7422C818.634 59.7422 816.144 58.7298 814.295 56.7409L812.83 58.1028ZM881.922 58.0469L882.411 58.919L883.133 58.5142L882.87 57.7294L881.922 58.0469ZM878.836 48.8281L879.784 48.5107L879.414 47.4053L878.378 47.9392L878.836 48.8281ZM872 31.0547V30.0547H871V31.0547H872ZM881.492 31.0547V32.0547H882.492V31.0547H881.492ZM881.492 20.8594H882.492V19.8594H881.492V20.8594ZM872 20.8594H871V21.8594H872V20.8594ZM872 7.03125H873V5.91937L871.894 6.03685L872 7.03125ZM859.5 8.35938L859.394 7.36497L858.5 7.46V8.35938H859.5ZM859.5 20.8594V21.8594H860.5V20.8594H859.5ZM855.086 20.8594V19.8594H854.086V20.8594H855.086ZM855.086 31.0547H854.086V32.0547H855.086V31.0547ZM859.5 31.0547H860.5V30.0547H859.5V31.0547ZM862.625 57.4219L863.357 56.7409L863.351 56.7343L863.345 56.7277L862.625 57.4219ZM870.984 61.7422C873.522 61.7422 875.663 61.5456 877.398 61.0379L876.836 59.1184C875.368 59.5481 873.446 59.7422 870.984 59.7422V61.7422ZM877.398 61.0379C879.073 60.5478 880.744 59.8543 882.411 58.919L881.433 57.1747C879.897 58.0364 878.365 58.671 876.836 59.1184L877.398 61.0379ZM882.87 57.7294L879.784 48.5107L877.888 49.1456L880.974 58.3643L882.87 57.7294ZM878.378 47.9392C877.222 48.5348 876.089 48.8047 874.969 48.8047V50.8047C876.427 50.8047 877.872 50.4496 879.294 49.7171L878.378 47.9392ZM874.969 48.8047C874.085 48.8047 873.706 48.5229 873.501 48.1509L871.749 49.1147C872.404 50.3052 873.587 50.8047 874.969 50.8047V48.8047ZM873.501 48.1509C873.191 47.5867 873 46.6919 873 45.3516H871C871 46.8237 871.2 48.1164 871.749 49.1147L873.501 48.1509ZM873 45.3516V31.0547H871V45.3516H873ZM872 32.0547H881.492V30.0547H872V32.0547ZM882.492 31.0547V20.8594H880.492V31.0547H882.492ZM881.492 19.8594H872V21.8594H881.492V19.8594ZM873 20.8594V7.03125H871V20.8594H873ZM871.894 6.03685L859.394 7.36497L859.606 9.35378L872.106 8.02565L871.894 6.03685ZM858.5 8.35938V20.8594H860.5V8.35938H858.5ZM859.5 19.8594H855.086V21.8594H859.5V19.8594ZM854.086 20.8594V31.0547H856.086V20.8594H854.086ZM855.086 32.0547H859.5V30.0547H855.086V32.0547ZM858.5 31.0547V47.6953H860.5V31.0547H858.5ZM858.5 47.6953C858.5 52.1341 859.549 55.6721 861.905 58.116L863.345 56.7277C861.483 54.7966 860.5 51.8503 860.5 47.6953H858.5ZM861.893 58.1028C864.184 60.567 867.241 61.7422 870.984 61.7422V59.7422C867.696 59.7422 865.207 58.7298 863.357 56.7409L861.893 58.1028ZM905.789 21.4453L905.406 20.5217L905.397 20.5253L905.789 21.4453ZM900.398 25.3906V26.3906H900.856L901.155 26.0442L900.398 25.3906ZM900.242 25.3906H899.242V26.3906H900.242V25.3906ZM900.242 1.09375H901.242V0.09375H900.242V1.09375ZM887.742 1.09375V0.09375H886.742V1.09375H887.742ZM887.742 60H886.742V61H887.742V60ZM900.242 60V61H901.242V60H900.242ZM900.242 40.2734V39.2734H899.242V40.2734H900.242ZM900.281 40.2734V41.2734H901.281V40.2734H900.281ZM902.234 33.5547L902.988 34.2118L902.989 34.2104L902.234 33.5547ZM912.547 33.0859L913.313 32.4433L913.308 32.4371L913.303 32.431L912.547 33.0859ZM914.07 60H913.07V61H914.07V60ZM926.57 60V61H927.57V60H926.57ZM925.516 28.6719L926.468 28.3659L926.466 28.3608L925.516 28.6719ZM922.547 23.6328L923.232 22.904L923.226 22.8989L923.221 22.8939L922.547 23.6328ZM912.469 19.1172C909.951 19.1172 907.595 19.6131 905.406 20.5217L906.172 22.3689C908.124 21.5587 910.221 21.1172 912.469 21.1172V19.1172ZM905.397 20.5253C903.144 21.4848 901.224 22.9053 899.642 24.737L901.155 26.0442C902.542 24.4384 904.215 23.2027 906.181 22.3653L905.397 20.5253ZM900.398 24.3906H900.242V26.3906H900.398V24.3906ZM901.242 25.3906V1.09375H899.242V25.3906H901.242ZM900.242 0.09375H887.742V2.09375H900.242V0.09375ZM886.742 1.09375V60H888.742V1.09375H886.742ZM887.742 61H900.242V59H887.742V61ZM901.242 60V40.2734H899.242V60H901.242ZM900.242 41.2734H900.281V39.2734H900.242V41.2734ZM901.281 40.2734C901.281 37.424 901.884 35.4783 902.988 34.2118L901.481 32.8976C899.928 34.6779 899.281 37.1854 899.281 40.2734H901.281ZM902.989 34.2104C904.065 32.9715 905.572 32.2891 907.586 32.2891V30.2891C905.068 30.2891 902.982 31.1691 901.479 32.899L902.989 34.2104ZM907.586 32.2891C909.687 32.2891 911.034 32.8677 911.791 33.7409L913.303 32.431C912.028 30.9605 910.017 30.2891 907.586 30.2891V32.2891ZM911.781 33.7285C912.558 34.6553 913.07 36.455 913.07 39.4531H915.07C915.07 36.3575 914.567 33.9384 913.313 32.4433L911.781 33.7285ZM913.07 39.4531V60H915.07V39.4531H913.07ZM914.07 61H926.57V59H914.07V61ZM927.57 60V36.4062H925.57V60H927.57ZM927.57 36.4062C927.57 33.3623 927.21 30.6763 926.468 28.3659L924.564 28.9779C925.227 31.0425 925.57 33.5127 925.57 36.4062H927.57ZM926.466 28.3608C925.727 26.1027 924.676 24.2608 923.232 22.904L921.862 24.3617C922.996 25.4267 923.898 26.9442 924.565 28.9829L926.466 28.3608ZM923.221 22.8939C921.805 21.6029 920.241 20.6251 918.449 20.0279L917.817 21.9252C919.306 22.4218 920.633 23.2409 921.873 24.3718L923.221 22.8939ZM918.449 20.0279C916.697 19.4439 914.675 19.1172 912.469 19.1172V21.1172C914.481 21.1172 916.287 21.4155 917.817 21.9252L918.449 20.0279ZM962.469 22.6562L962.97 21.7908L962.961 21.7859L962.469 22.6562ZM938.133 25.8203L938.848 26.5196L938.848 26.5194L938.133 25.8203ZM933.992 32.2656L933.066 31.8892L933.064 31.8942L933.992 32.2656ZM934.07 48.7109L934.999 48.3395L934.994 48.3273L934.07 48.7109ZM944.773 59.2578L945.15 58.3313L945.137 58.3264L944.773 59.2578ZM963.172 58.7109L963.586 59.6213L963.59 59.6192L963.172 58.7109ZM970.32 53.2812L971.104 53.9026L971.626 53.2442L971.067 52.6164L970.32 53.2812ZM963.68 45.8203L964.427 45.1555L963.669 44.3038L962.923 45.1665L963.68 45.8203ZM944.93 43.7891V42.7891H943.71L943.949 43.9852L944.93 43.7891ZM971.57 43.7891V44.7891H972.45L972.562 43.9162L971.57 43.7891ZM955.828 30.8594L956.289 29.9722L956.269 29.9613L956.247 29.9514L955.828 30.8594ZM958.25 32.9688L959.082 32.414L959.077 32.4058L959.071 32.3977L958.25 32.9688ZM959.617 36.25L959.622 37.25L960.896 37.2432L960.587 36.0075L959.617 36.25ZM944.969 36.3281L943.988 36.132L943.748 37.3347L944.974 37.3281L944.969 36.3281ZM947.586 31.7578L948.211 32.5387L948.216 32.5343L948.222 32.5297L947.586 31.7578ZM972.883 40.0781C972.883 36.0948 971.987 32.4929 970.263 29.2915L968.502 30.2397C970.06 33.1321 970.883 36.4052 970.883 40.0781H972.883ZM970.263 29.2915C968.533 26.0781 966.095 23.6004 962.97 21.7908L961.968 23.5217C964.78 25.1496 966.951 27.3594 968.502 30.2397L970.263 29.2915ZM962.961 21.7859C959.831 20.0147 956.3 19.1172 952.391 19.1172V21.1172C955.982 21.1172 959.169 21.9384 961.976 23.5266L962.961 21.7859ZM952.391 19.1172C949.418 19.1172 946.631 19.6472 944.04 20.7163L944.803 22.565C947.135 21.6028 949.661 21.1172 952.391 21.1172V19.1172ZM944.04 20.7163C941.463 21.7798 939.238 23.2597 937.418 25.1212L938.848 26.5194C940.465 24.8653 942.459 23.5327 944.803 22.565L944.04 20.7163ZM937.418 25.121C935.56 27.0204 934.125 29.282 933.066 31.8892L934.919 32.642C935.891 30.2492 937.19 28.214 938.848 26.5196L937.418 25.121ZM933.064 31.8942C931.995 34.5672 931.508 37.43 931.508 40.4297H933.508C933.508 37.6481 933.959 35.0422 934.921 32.637L933.064 31.8942ZM931.508 40.4297C931.508 43.5137 932.036 46.4196 933.147 49.0945L934.994 48.3273C933.996 45.9241 933.508 43.2832 933.508 40.4297H931.508ZM933.142 49.0823C934.208 51.7473 935.73 54.0136 937.629 55.8711L939.027 54.4414C937.332 52.7833 935.964 50.7527 934.999 48.3395L933.142 49.0823ZM937.629 55.8711C939.528 57.7292 941.793 59.1671 944.41 60.1893L945.137 58.3264C942.754 57.3954 940.722 56.099 939.027 54.4414L937.629 55.8711ZM944.397 60.1843C947.033 61.2552 949.859 61.7422 952.859 61.7422V59.7422C950.078 59.7422 947.514 59.2916 945.15 58.3313L944.397 60.1843ZM952.859 61.7422C956.841 61.7422 960.424 61.0582 963.586 59.6213L962.758 57.8006C959.904 59.098 956.612 59.7422 952.859 59.7422V61.7422ZM963.59 59.6192C966.679 58.1966 969.195 56.309 971.104 53.9026L969.537 52.6599C967.852 54.7847 965.602 56.4909 962.754 57.8026L963.59 59.6192ZM971.067 52.6164L964.427 45.1555L962.933 46.4852L969.573 53.9461L971.067 52.6164ZM962.923 45.1665C960.347 48.1476 957.445 49.5469 954.188 49.5469V51.5469C958.117 51.5469 961.544 49.8212 964.436 46.4742L962.923 45.1665ZM954.188 49.5469C952.022 49.5469 950.231 49.0094 948.696 47.9628L947.569 49.6153C949.472 50.9125 951.665 51.5469 954.188 51.5469V49.5469ZM948.696 47.9628C947.214 46.9521 946.294 45.5099 945.91 43.5929L943.949 43.9852C944.425 46.3651 945.614 48.2822 947.569 49.6153L948.696 47.9628ZM944.93 44.7891H971.57V42.7891H944.93V44.7891ZM972.562 43.9162C972.758 42.3859 972.883 41.083 972.883 40.0781H970.883C970.883 40.9482 970.773 42.1453 970.578 43.6619L972.562 43.9162ZM952.508 31.1172C953.561 31.1172 954.512 31.3534 955.409 31.7673L956.247 29.9514C955.113 29.4278 953.877 29.1172 952.508 29.1172V31.1172ZM955.367 31.7466C956.208 32.184 956.902 32.7818 957.429 33.5398L959.071 32.3977C958.348 31.3588 957.401 30.5504 956.289 29.9722L955.367 31.7466ZM957.418 33.5235C957.961 34.3378 958.353 35.3159 958.647 36.4925L960.587 36.0075C960.256 34.6841 959.789 33.4747 959.082 32.414L957.418 33.5235ZM959.612 35.25L944.963 35.3281L944.974 37.3281L959.622 37.25L959.612 35.25ZM945.949 36.5242C946.302 34.761 947.057 33.4614 948.211 32.5387L946.961 30.9769C945.38 32.2418 944.417 33.989 943.988 36.132L945.949 36.5242ZM948.222 32.5297C949.347 31.6032 950.753 31.1172 952.508 31.1172V29.1172C950.356 29.1172 948.481 29.7249 946.95 30.9859L948.222 32.5297ZM1043.52 3.16406V2.16406H1042.91L1042.64 2.70445L1043.52 3.16406ZM1027.94 33.2812V34.2812H1028.55L1028.83 33.7409L1027.94 33.2812ZM1027.7 33.2812L1026.82 33.7436L1027.1 34.2812H1027.7V33.2812ZM1012 3.16406L1012.89 2.70173L1012.61 2.16406H1012V3.16406ZM998.523 3.16406V2.16406H997.523V3.16406H998.523ZM998.523 60H997.523V61H998.523V60ZM1011.8 60V61H1012.8V60H1011.8ZM1011.8 28.7109V27.7109H1010.8V28.7109H1011.8ZM1011.96 28.7109L1012.84 28.2274L1012.55 27.7109H1011.96V28.7109ZM1023.48 49.5703L1022.61 50.0539L1022.89 50.5703H1023.48V49.5703ZM1032.04 49.5703V50.5703H1032.63L1032.91 50.0532L1032.04 49.5703ZM1043.56 28.6719V27.6719H1042.97L1042.69 28.189L1043.56 28.6719ZM1043.72 28.6719H1044.72V27.6719H1043.72V28.6719ZM1043.72 60H1042.72V61H1043.72V60ZM1057 60V61H1058V60H1057ZM1057 3.16406H1058V2.16406H1057V3.16406ZM1042.64 2.70445L1027.05 32.8216L1028.83 33.7409L1044.41 3.62367L1042.64 2.70445ZM1027.94 32.2812H1027.7V34.2812H1027.94V32.2812ZM1028.59 32.8189L1012.89 2.70173L1011.11 3.62639L1026.82 33.7436L1028.59 32.8189ZM1012 2.16406H998.523V4.16406H1012V2.16406ZM997.523 3.16406V60H999.523V3.16406H997.523ZM998.523 61H1011.8V59H998.523V61ZM1012.8 60V28.7109H1010.8V60H1012.8ZM1011.8 29.7109H1011.96V27.7109H1011.8V29.7109ZM1011.09 29.1945L1022.61 50.0539L1024.36 49.0868L1012.84 28.2274L1011.09 29.1945ZM1023.48 50.5703H1032.04V48.5703H1023.48V50.5703ZM1032.91 50.0532L1044.44 29.1547L1042.69 28.189L1031.16 49.0875L1032.91 50.0532ZM1043.56 29.6719H1043.72V27.6719H1043.56V29.6719ZM1042.72 28.6719V60H1044.72V28.6719H1042.72ZM1043.72 61H1057V59H1043.72V61ZM1058 60V3.16406H1056V60H1058ZM1057 2.16406H1043.52V4.16406H1057V2.16406ZM1092.9 20.8594V19.8594H1091.9V20.8594H1092.9ZM1092.9 25V26H1093.9V25H1092.9ZM1092.74 25L1091.99 25.6553L1092.29 26H1092.74V25ZM1069.23 25.7812L1069.97 26.4466L1069.97 26.4456L1069.23 25.7812ZM1065.48 32.2656L1066.41 32.612L1066.42 32.5992L1065.48 32.2656ZM1065.48 48.75L1066.42 48.4164L1066.42 48.4076L1066.41 48.3989L1065.48 48.75ZM1069.27 55.1562L1070 54.4828L1070 54.4742L1069.99 54.4658L1069.27 55.1562ZM1075.12 59.2578L1075.53 58.3453L1075.52 58.3411L1075.52 58.3371L1075.12 59.2578ZM1093.41 55.7812V54.7812H1092.91L1092.61 55.1738L1093.41 55.7812ZM1093.56 55.7812H1094.56V54.7812H1093.56V55.7812ZM1093.56 60H1092.56V61H1093.56V60ZM1105.44 60V61H1106.44V60H1105.44ZM1105.44 20.8594H1106.44V19.8594H1105.44V20.8594ZM1079.15 33.7891L1079.88 34.4708L1079.89 34.4617L1079.15 33.7891ZM1091.02 47.1875L1091.76 47.8693L1091.76 47.8602L1091.02 47.1875ZM1091.9 20.8594V25H1093.9V20.8594H1091.9ZM1092.9 24H1092.74V26H1092.9V24ZM1093.5 24.3447C1090.49 20.8812 1086.62 19.1172 1081.96 19.1172V21.1172C1086.05 21.1172 1089.37 22.6344 1091.99 25.6553L1093.5 24.3447ZM1081.96 19.1172C1079.32 19.1172 1076.8 19.6535 1074.47 20.7336L1075.31 22.5476C1077.36 21.5965 1079.6 21.1172 1081.96 21.1172V19.1172ZM1074.47 20.7336C1072.17 21.8005 1070.14 23.2459 1068.48 25.1169L1069.97 26.4456C1071.44 24.801 1073.23 23.512 1075.31 22.5476L1074.47 20.7336ZM1068.48 25.1159C1066.78 27.0186 1065.47 29.2826 1064.53 31.932L1066.42 32.5992C1067.28 30.1705 1068.47 28.1377 1069.97 26.4466L1068.48 25.1159ZM1064.54 31.9193C1063.55 34.5863 1063.11 37.4406 1063.11 40.4688H1065.11C1065.11 37.6375 1065.52 35.0231 1066.41 32.612L1064.54 31.9193ZM1063.11 40.4688C1063.11 43.5705 1063.55 46.4669 1064.54 49.1011L1066.41 48.3989C1065.53 46.0331 1065.11 43.3826 1065.11 40.4688H1063.11ZM1064.53 49.0836C1065.47 51.7305 1066.79 54.0081 1068.54 55.8467L1069.99 54.4658C1068.46 52.8669 1067.28 50.8476 1066.42 48.4164L1064.53 49.0836ZM1068.53 55.8297C1070.23 57.6998 1072.3 59.1487 1074.73 60.1786L1075.52 58.3371C1073.34 57.4138 1071.5 56.1284 1070 54.4828L1068.53 55.8297ZM1074.72 60.1703C1077.13 61.2524 1079.77 61.7422 1082.55 61.7422V59.7422C1080.01 59.7422 1077.65 59.2945 1075.53 58.3453L1074.72 60.1703ZM1082.55 61.7422C1087.5 61.7422 1091.44 59.9925 1094.2 56.3887L1092.61 55.1738C1090.29 58.2106 1086.97 59.7422 1082.55 59.7422V61.7422ZM1093.41 56.7812H1093.56V54.7812H1093.41V56.7812ZM1092.56 55.7812V60H1094.56V55.7812H1092.56ZM1093.56 61H1105.44V59H1093.56V61ZM1106.44 60V20.8594H1104.44V60H1106.44ZM1105.44 19.8594H1092.9V21.8594H1105.44V19.8594ZM1085.12 48.7266C1082.92 48.7266 1081.2 48.0048 1079.85 46.5148L1078.37 47.8602C1080.14 49.8077 1082.41 50.7266 1085.12 50.7266V48.7266ZM1079.85 46.5148C1078.48 45.0121 1077.77 43.0402 1077.77 40.5078H1075.77C1075.77 43.4442 1076.61 45.9254 1078.37 47.8602L1079.85 46.5148ZM1077.77 40.5078C1077.77 37.9718 1078.48 35.968 1079.88 34.4708L1078.42 33.1073C1076.61 35.0476 1075.77 37.5751 1075.77 40.5078H1077.77ZM1079.89 34.4617C1081.25 32.965 1083.01 32.2109 1085.16 32.2109V30.2109C1082.48 30.2109 1080.17 31.1756 1078.41 33.1164L1079.89 34.4617ZM1085.16 32.2109C1086.49 32.2109 1087.72 32.5832 1088.81 33.2699L1089.87 31.5739C1088.47 30.698 1086.88 30.2109 1085.16 30.2109V32.2109ZM1088.81 33.2699C1089.9 33.9478 1090.79 34.9376 1091.42 36.1894L1093.21 35.295C1092.43 33.7342 1091.29 32.4585 1089.87 31.5739L1088.81 33.2699ZM1091.42 36.1894C1092.05 37.4534 1092.41 38.9014 1092.41 40.5078H1094.41C1094.41 38.5986 1093.98 36.8435 1093.21 35.295L1091.42 36.1894ZM1092.41 40.5078C1092.41 43.0283 1091.66 45.0044 1090.28 46.5148L1091.76 47.8602C1093.52 45.9331 1094.41 43.4561 1094.41 40.5078H1092.41ZM1090.29 46.5058C1088.89 48.0151 1087.2 48.7266 1085.12 48.7266V50.7266C1087.74 50.7266 1089.96 49.7974 1091.76 47.8692L1090.29 46.5058ZM1133.25 20.8203L1133.57 21.7663L1133.58 21.7633L1133.25 20.8203ZM1129.38 22.8125L1128.8 21.997L1128.8 22.0031L1128.79 22.0094L1129.38 22.8125ZM1126.1 26.0938V27.0938H1126.6L1126.9 26.6976L1126.1 26.0938ZM1125.95 26.0938H1124.95V27.0938H1125.95V26.0938ZM1125.95 20.8594H1126.95V19.8594H1125.95V20.8594ZM1113.45 20.8594V19.8594H1112.45V20.8594H1113.45ZM1113.45 60H1112.45V61H1113.45V60ZM1125.95 60V61H1126.95V60H1125.95ZM1137.86 33.6328L1137.81 34.6316L1138.86 34.6841V33.6328H1137.86ZM1137.86 20.1562H1138.86V19.1562H1137.86V20.1562ZM1137.43 19.1172C1135.88 19.1172 1134.36 19.3693 1132.92 19.8773L1133.58 21.7633C1134.8 21.3338 1136.09 21.1172 1137.43 21.1172V19.1172ZM1132.93 19.8744C1131.47 20.375 1130.09 21.0837 1128.8 21.997L1129.96 23.628C1131.1 22.8225 1132.3 22.2031 1133.57 21.7663L1132.93 19.8744ZM1128.79 22.0094C1127.49 22.9683 1126.33 24.1307 1125.3 25.4899L1126.9 26.6976C1127.82 25.4787 1128.85 24.4536 1129.98 23.6156L1128.79 22.0094ZM1126.1 25.0938H1125.95V27.0938H1126.1V25.0938ZM1126.95 26.0938V20.8594H1124.95V26.0938H1126.95ZM1125.95 19.8594H1113.45V21.8594H1125.95V19.8594ZM1112.45 20.8594V60H1114.45V20.8594H1112.45ZM1113.45 61H1125.95V59H1113.45V61ZM1126.95 60V42.4219H1124.95V60H1126.95ZM1126.95 42.4219C1126.95 40.8248 1127.24 39.4608 1127.82 38.2988L1126.03 37.4043C1125.28 38.8985 1124.95 40.5815 1124.95 42.4219H1126.95ZM1127.82 38.2988C1128.38 37.1693 1129.25 36.2911 1130.46 35.5948L1129.47 33.8583C1127.96 34.7245 1126.79 35.8776 1126.03 37.4043L1127.82 38.2988ZM1130.46 35.5948C1131.65 34.9175 1133.11 34.5547 1134.93 34.5547V32.5547C1132.84 32.5547 1131.02 32.9731 1129.47 33.8583L1130.46 35.5948ZM1134.93 34.5547C1136.08 34.5547 1137.04 34.593 1137.81 34.6316L1137.91 32.6341C1137.12 32.5945 1136.12 32.5547 1134.93 32.5547V34.5547ZM1138.86 33.6328V20.1562H1136.86V33.6328H1138.86ZM1137.86 19.1562C1137.91 19.1562 1137.94 19.1614 1137.91 19.1582C1137.91 19.1572 1137.9 19.1558 1137.88 19.1535C1137.86 19.1514 1137.84 19.1484 1137.82 19.1455C1137.73 19.1335 1137.59 19.1172 1137.43 19.1172V21.1172C1137.46 21.1172 1137.5 21.1204 1137.56 21.1279C1137.57 21.1299 1137.58 21.1318 1137.6 21.1343C1137.62 21.1365 1137.64 21.1394 1137.66 21.1421C1137.69 21.1462 1137.77 21.1562 1137.86 21.1562V19.1562ZM1159.66 45.6641L1160.53 45.1728L1160.24 44.6641H1159.66V45.6641ZM1167.74 60L1166.87 60.4913L1167.16 61H1167.74V60ZM1181.61 60V61H1183.34L1182.48 59.5008L1181.61 60ZM1167.86 36.1328L1167.11 35.4723L1166.63 36.0107L1166.99 36.632L1167.86 36.1328ZM1181.3 20.8594L1182.05 21.5199L1183.51 19.8594H1181.3V20.8594ZM1166.8 20.8594V19.8594H1166.35L1166.05 20.2015L1166.8 20.8594ZM1155.48 33.8281V34.8281H1155.93L1156.23 34.486L1155.48 33.8281ZM1155.32 33.8281H1154.32V34.8281H1155.32V33.8281ZM1155.32 1.09375H1156.32V0.09375H1155.32V1.09375ZM1142.82 1.09375V0.09375H1141.82V1.09375H1142.82ZM1142.82 60H1141.82V61H1142.82V60ZM1155.32 60V61H1156.32V60H1155.32ZM1155.32 50.3516L1154.57 49.6895L1154.32 49.9731V50.3516H1155.32ZM1159.46 45.6641V44.6641H1159.01L1158.71 45.002L1159.46 45.6641ZM1158.79 46.1553L1166.87 60.4913L1168.61 59.5087L1160.53 45.1728L1158.79 46.1553ZM1167.74 61H1181.61V59H1167.74V61ZM1182.48 59.5008L1168.73 35.6336L1166.99 36.632L1180.74 60.4992L1182.48 59.5008ZM1168.61 36.7934L1182.05 21.5199L1180.55 20.1988L1167.11 35.4723L1168.61 36.7934ZM1181.3 19.8594H1166.8V21.8594H1181.3V19.8594ZM1166.05 20.2015L1154.72 33.1703L1156.23 34.486L1167.56 21.5172L1166.05 20.2015ZM1155.48 32.8281H1155.32V34.8281H1155.48V32.8281ZM1156.32 33.8281V1.09375H1154.32V33.8281H1156.32ZM1155.32 0.09375H1142.82V2.09375H1155.32V0.09375ZM1141.82 1.09375V60H1143.82V1.09375H1141.82ZM1142.82 61H1155.32V59H1142.82V61ZM1156.32 60V50.3516H1154.32V60H1156.32ZM1156.07 51.0136L1160.21 46.3261L1158.71 45.002L1154.57 49.6895L1156.07 51.0136ZM1159.46 46.6641H1159.66V44.6641H1159.46V46.6641ZM1211.45 22.6562L1211.95 21.7908L1211.95 21.7859L1211.45 22.6562ZM1187.12 25.8203L1187.83 26.5196L1187.83 26.5194L1187.12 25.8203ZM1182.98 32.2656L1182.05 31.8892L1182.05 31.8942L1182.98 32.2656ZM1183.05 48.7109L1183.98 48.3395L1183.98 48.3273L1183.05 48.7109ZM1193.76 59.2578L1194.13 58.3313L1194.12 58.3264L1193.76 59.2578ZM1212.16 58.7109L1212.57 59.6213L1212.57 59.6192L1212.16 58.7109ZM1219.3 53.2812L1220.09 53.9026L1220.61 53.2442L1220.05 52.6164L1219.3 53.2812ZM1212.66 45.8203L1213.41 45.1555L1212.65 44.3038L1211.91 45.1665L1212.66 45.8203ZM1193.91 43.7891V42.7891H1192.69L1192.93 43.9852L1193.91 43.7891ZM1220.55 43.7891V44.7891H1221.43L1221.55 43.9162L1220.55 43.7891ZM1204.81 30.8594L1205.27 29.9722L1205.25 29.9613L1205.23 29.9514L1204.81 30.8594ZM1207.23 32.9688L1208.07 32.414L1208.06 32.4058L1208.06 32.3977L1207.23 32.9688ZM1208.6 36.25L1208.61 37.25L1209.88 37.2432L1209.57 36.0075L1208.6 36.25ZM1193.95 36.3281L1192.97 36.132L1192.73 37.3347L1193.96 37.3281L1193.95 36.3281ZM1196.57 31.7578L1197.2 32.5387L1197.2 32.5343L1197.21 32.5297L1196.57 31.7578ZM1221.87 40.0781C1221.87 36.0948 1220.97 32.4929 1219.25 29.2915L1217.49 30.2397C1219.04 33.1321 1219.87 36.4052 1219.87 40.0781H1221.87ZM1219.25 29.2915C1217.52 26.0781 1215.08 23.6004 1211.95 21.7908L1210.95 23.5217C1213.76 25.1496 1215.94 27.3594 1217.49 30.2397L1219.25 29.2915ZM1211.95 21.7859C1208.82 20.0147 1205.28 19.1172 1201.38 19.1172V21.1172C1204.97 21.1172 1208.15 21.9384 1210.96 23.5266L1211.95 21.7859ZM1201.38 19.1172C1198.4 19.1172 1195.62 19.6472 1193.02 20.7163L1193.79 22.565C1196.12 21.6028 1198.64 21.1172 1201.38 21.1172V19.1172ZM1193.02 20.7163C1190.45 21.7798 1188.22 23.2597 1186.4 25.1212L1187.83 26.5194C1189.45 24.8653 1191.44 23.5327 1193.79 22.565L1193.02 20.7163ZM1186.4 25.121C1184.54 27.0204 1183.11 29.282 1182.05 31.8892L1183.9 32.642C1184.88 30.2492 1186.17 28.214 1187.83 26.5196L1186.4 25.121ZM1182.05 31.8942C1180.98 34.5672 1180.49 37.43 1180.49 40.4297H1182.49C1182.49 37.6481 1182.94 35.0422 1183.91 32.637L1182.05 31.8942ZM1180.49 40.4297C1180.49 43.5137 1181.02 46.4196 1182.13 49.0945L1183.98 48.3273C1182.98 45.9241 1182.49 43.2832 1182.49 40.4297H1180.49ZM1182.13 49.0823C1183.19 51.7473 1184.71 54.0136 1186.61 55.8711L1188.01 54.4414C1186.32 52.7833 1184.95 50.7527 1183.98 48.3395L1182.13 49.0823ZM1186.61 55.8711C1188.51 57.7292 1190.78 59.1671 1193.39 60.1893L1194.12 58.3264C1191.74 57.3954 1189.71 56.099 1188.01 54.4414L1186.61 55.8711ZM1193.38 60.1843C1196.02 61.2552 1198.84 61.7422 1201.84 61.7422V59.7422C1199.06 59.7422 1196.5 59.2916 1194.13 58.3313L1193.38 60.1843ZM1201.84 61.7422C1205.83 61.7422 1209.41 61.0582 1212.57 59.6213L1211.74 57.8006C1208.89 59.098 1205.6 59.7422 1201.84 59.7422V61.7422ZM1212.57 59.6192C1215.66 58.1966 1218.18 56.309 1220.09 53.9026L1218.52 52.6599C1216.84 54.7847 1214.59 56.4909 1211.74 57.8026L1212.57 59.6192ZM1220.05 52.6164L1213.41 45.1555L1211.92 46.4852L1218.56 53.9461L1220.05 52.6164ZM1211.91 45.1665C1209.33 48.1476 1206.43 49.5469 1203.17 49.5469V51.5469C1207.1 51.5469 1210.53 49.8212 1213.42 46.4742L1211.91 45.1665ZM1203.17 49.5469C1201.01 49.5469 1199.22 49.0094 1197.68 47.9628L1196.55 49.6153C1198.46 50.9125 1200.65 51.5469 1203.17 51.5469V49.5469ZM1197.68 47.9628C1196.2 46.9521 1195.28 45.5099 1194.89 43.5929L1192.93 43.9852C1193.41 46.3651 1194.6 48.2822 1196.55 49.6153L1197.68 47.9628ZM1193.91 44.7891H1220.55V42.7891H1193.91V44.7891ZM1221.55 43.9162C1221.74 42.3859 1221.87 41.083 1221.87 40.0781H1219.87C1219.87 40.9482 1219.76 42.1453 1219.56 43.6619L1221.55 43.9162ZM1201.49 31.1172C1202.55 31.1172 1203.5 31.3534 1204.39 31.7673L1205.23 29.9514C1204.1 29.4278 1202.86 29.1172 1201.49 29.1172V31.1172ZM1204.35 31.7466C1205.19 32.184 1205.89 32.7818 1206.41 33.5398L1208.06 32.3977C1207.33 31.3588 1206.39 30.5504 1205.27 29.9722L1204.35 31.7466ZM1206.4 33.5235C1206.95 34.3378 1207.34 35.3159 1207.63 36.4925L1209.57 36.0075C1209.24 34.6841 1208.77 33.4747 1208.07 32.414L1206.4 33.5235ZM1208.6 35.25L1193.95 35.3281L1193.96 37.3281L1208.61 37.25L1208.6 35.25ZM1194.93 36.5242C1195.29 34.761 1196.04 33.4614 1197.2 32.5387L1195.95 30.9769C1194.36 32.2418 1193.4 33.989 1192.97 36.132L1194.93 36.5242ZM1197.21 32.5297C1198.33 31.6032 1199.74 31.1172 1201.49 31.1172V29.1172C1199.34 29.1172 1197.47 29.7249 1195.93 30.9859L1197.21 32.5297ZM1250.83 58.0469L1251.32 58.919L1252.04 58.5142L1251.78 57.7294L1250.83 58.0469ZM1247.74 48.8281L1248.69 48.5107L1248.32 47.4053L1247.28 47.9392L1247.74 48.8281ZM1240.91 31.0547V30.0547H1239.91V31.0547H1240.91ZM1250.4 31.0547V32.0547H1251.4V31.0547H1250.4ZM1250.4 20.8594H1251.4V19.8594H1250.4V20.8594ZM1240.91 20.8594H1239.91V21.8594H1240.91V20.8594ZM1240.91 7.03125H1241.91V5.91937L1240.8 6.03685L1240.91 7.03125ZM1228.41 8.35938L1228.3 7.36497L1227.41 7.46V8.35938H1228.41ZM1228.41 20.8594V21.8594H1229.41V20.8594H1228.41ZM1223.99 20.8594V19.8594H1222.99V20.8594H1223.99ZM1223.99 31.0547H1222.99V32.0547H1223.99V31.0547ZM1228.41 31.0547H1229.41V30.0547H1228.41V31.0547ZM1231.53 57.4219L1232.26 56.7409L1232.26 56.7343L1232.25 56.7277L1231.53 57.4219ZM1239.89 61.7422C1242.43 61.7422 1244.57 61.5456 1246.3 61.0379L1245.74 59.1184C1244.27 59.5481 1242.35 59.7422 1239.89 59.7422V61.7422ZM1246.3 61.0379C1247.98 60.5478 1249.65 59.8543 1251.32 58.919L1250.34 57.1747C1248.8 58.0364 1247.27 58.671 1245.74 59.1184L1246.3 61.0379ZM1251.78 57.7294L1248.69 48.5107L1246.79 49.1456L1249.88 58.3643L1251.78 57.7294ZM1247.28 47.9392C1246.13 48.5348 1245 48.8047 1243.88 48.8047V50.8047C1245.33 50.8047 1246.78 50.4496 1248.2 49.7171L1247.28 47.9392ZM1243.88 48.8047C1242.99 48.8047 1242.61 48.5229 1242.41 48.1509L1240.66 49.1147C1241.31 50.3052 1242.49 50.8047 1243.88 50.8047V48.8047ZM1242.41 48.1509C1242.1 47.5867 1241.91 46.6919 1241.91 45.3516H1239.91C1239.91 46.8237 1240.11 48.1164 1240.66 49.1147L1242.41 48.1509ZM1241.91 45.3516V31.0547H1239.91V45.3516H1241.91ZM1240.91 32.0547H1250.4V30.0547H1240.91V32.0547ZM1251.4 31.0547V20.8594H1249.4V31.0547H1251.4ZM1250.4 19.8594H1240.91V21.8594H1250.4V19.8594ZM1241.91 20.8594V7.03125H1239.91V20.8594H1241.91ZM1240.8 6.03685L1228.3 7.36497L1228.51 9.35378L1241.01 8.02565L1240.8 6.03685ZM1227.41 8.35938V20.8594H1229.41V8.35938H1227.41ZM1228.41 19.8594H1223.99V21.8594H1228.41V19.8594ZM1222.99 20.8594V31.0547H1224.99V20.8594H1222.99ZM1223.99 32.0547H1228.41V30.0547H1223.99V32.0547ZM1227.41 31.0547V47.6953H1229.41V31.0547H1227.41ZM1227.41 47.6953C1227.41 52.1341 1228.45 55.6721 1230.81 58.116L1232.25 56.7277C1230.39 54.7966 1229.41 51.8503 1229.41 47.6953H1227.41ZM1230.8 58.1028C1233.09 60.567 1236.15 61.7422 1239.89 61.7422V59.7422C1236.6 59.7422 1234.11 58.7298 1232.26 56.7409L1230.8 58.1028Z" fill="#8F8F8F"/>
</svg>
