<svg width="274" height="61" viewBox="0 0 274 61" fill="none" xmlns="http://www.w3.org/2000/svg">
<path opacity="0.2" d="M43.3906 56.7344L43.8414 57.627L43.845 57.6252L43.3906 56.7344ZM53.1953 48.8438L53.9771 49.4673L54.5792 48.7124L53.8459 48.0843L53.1953 48.8438ZM43.3906 40.4453L44.0412 39.6858L43.2558 39.0131L42.6098 39.8206L43.3906 40.4453ZM16.9062 38.9219L17.7978 38.469L17.7949 38.4632L16.9062 38.9219ZM15.6172 25.9141L16.5859 26.1624L16.5889 26.1507L16.5916 26.1389L15.6172 25.9141ZM19.5625 18.5312L18.8554 17.8241L18.8482 17.8314L18.8411 17.8387L19.5625 18.5312ZM22.6484 16.1484L23.1315 17.024L23.1381 17.0204L23.1446 17.0167L22.6484 16.1484ZM26.2812 14.6641L26.0457 13.6922L26.0355 13.6947L26.0254 13.6974L26.2812 14.6641ZM43.3906 20.7188L42.6291 21.3669L43.2778 22.1291L44.0394 21.4797L43.3906 20.7188ZM53.1953 12.3594L53.8441 13.1203L54.593 12.4818L53.9665 11.7228L53.1953 12.3594ZM38.2734 2.51562L38.5463 1.55355L38.5425 1.55251L38.2734 2.51562ZM20.0703 2.86719L19.772 1.91265L19.7612 1.91615L20.0703 2.86719ZM11.9062 7.04688L12.5147 7.84051L12.5211 7.83551L11.9062 7.04688ZM2.25781 21.4609L1.29484 21.1913L1.29393 21.1946L2.25781 21.4609ZM13.2344 54.9375L13.786 54.1034L13.7798 54.0994L13.2344 54.9375ZM30.3047 60.7031C35.2106 60.7031 39.7425 59.6968 43.8414 57.627L42.9399 55.8417C39.1482 57.7564 34.93 58.7031 30.3047 58.7031V60.7031ZM43.845 57.6252C47.8682 55.5733 51.2644 52.8683 53.9771 49.4673L52.4135 48.2202C49.8919 51.3817 46.7255 53.911 42.9363 55.8435L43.845 57.6252ZM53.8459 48.0843L44.0412 39.6858L42.7401 41.2048L52.5448 49.6032L53.8459 48.0843ZM42.6098 39.8206C41.1368 41.6618 39.2972 43.1709 37.084 44.2774L37.9785 46.0663C40.4528 44.8291 42.5194 43.1351 44.1715 41.07L42.6098 39.8206ZM37.084 44.2774C34.8699 45.3845 32.6395 45.9297 30.3047 45.9297V47.9297C32.9699 47.9297 35.5051 47.303 37.9785 46.0663L37.084 44.2774ZM30.3047 45.9297C27.4609 45.9297 24.9905 45.2675 22.8218 43.9301L21.772 45.6324C24.2908 47.1857 27.1328 47.9297 30.3047 47.9297V45.9297ZM22.8218 43.9301C20.6349 42.5815 18.9648 40.7664 17.7978 38.469L16.0147 39.3747C17.3477 41.9992 19.2713 44.0903 21.772 45.6324L22.8218 43.9301ZM17.7949 38.4632C16.6299 36.2061 16.0703 33.634 16.0703 30.7578H14.0703C14.0703 33.8973 14.6826 36.7939 16.0176 39.3805L17.7949 38.4632ZM16.0703 30.7578C16.0703 29.0987 16.2213 27.5843 16.5859 26.1624L14.6485 25.6657C14.2318 27.2907 14.0703 28.9794 14.0703 30.7578H16.0703ZM16.5916 26.1389C16.9252 24.6933 17.4029 23.414 18.0174 22.2933L16.2638 21.3317C15.5503 22.6328 15.0123 24.088 14.6428 25.6892L16.5916 26.1389ZM18.0174 22.2933C18.6364 21.1647 19.403 20.1413 20.2839 19.2238L18.8411 17.8387C17.847 18.8743 16.973 20.0385 16.2638 21.3317L18.0174 22.2933ZM20.2696 19.2384C21.1592 18.3488 22.101 17.5926 23.1315 17.024L22.1654 15.2729C20.9302 15.9543 19.8408 16.8387 18.8554 17.8241L20.2696 19.2384ZM23.1446 17.0167C24.1643 16.434 25.2946 15.9597 26.5371 15.6308L26.0254 13.6974C24.6116 14.0716 23.3201 14.6129 22.1523 15.2802L23.1446 17.0167ZM26.5168 15.6359C27.7448 15.3382 28.9928 15.1562 30.3047 15.1562V13.1562C28.8041 13.1562 27.3958 13.3649 26.0457 13.6922L26.5168 15.6359ZM30.3047 15.1562C32.7057 15.1562 35.0013 15.7735 37.1263 16.9459L38.0925 15.1947C35.6862 13.8672 33.06 13.1562 30.3047 13.1562V15.1562ZM37.1263 16.9459C39.2962 18.1431 41.1521 19.6314 42.6291 21.3669L44.1522 20.0706C42.5042 18.1343 40.4538 16.4975 38.0925 15.1947L37.1263 16.9459ZM44.0394 21.4797L53.8441 13.1203L52.5465 11.5984L42.7418 19.9578L44.0394 21.4797ZM53.9665 11.7228C51.869 9.18151 49.4456 7.04038 46.6985 5.30324L45.6296 6.99363C48.195 8.61587 50.4592 10.6154 52.4241 12.9959L53.9665 11.7228ZM46.6985 5.30324C43.9752 3.58111 41.2705 2.32612 38.5463 1.55356L38.0006 3.47769C40.5107 4.18951 43.0405 5.35639 45.6296 6.99363L46.6985 5.30324ZM38.5425 1.55251C35.8069 0.788136 33.06 0.382812 30.3047 0.382812V2.38281C32.8618 2.38281 35.4275 2.75874 38.0043 3.47874L38.5425 1.55251ZM30.3047 0.382812C26.541 0.382812 23.0021 0.903318 19.772 1.91271L20.3686 3.82167C23.3885 2.87793 26.7247 2.38281 30.3047 2.38281V0.382812ZM19.7612 1.91615C16.5492 2.96007 13.7055 4.37608 11.2914 6.25824L12.5211 7.83551C14.7164 6.12392 17.3414 4.80556 20.3794 3.81822L19.7612 1.91615ZM11.2978 6.25327C8.85977 8.12244 6.83485 10.3525 5.14083 12.8532L6.79667 13.9749C8.3839 11.6319 10.2652 9.56506 12.5147 7.84048L11.2978 6.25327ZM5.14083 12.8532C3.43862 15.366 2.14363 18.16 1.29485 21.1913L3.22078 21.7306C4.01262 18.9025 5.21763 16.3059 6.79667 13.9749L5.14083 12.8532ZM1.29393 21.1946C0.447488 24.2579 0.046875 27.4341 0.046875 30.7578H2.04688C2.04688 27.5971 2.42751 24.6015 3.22169 21.7273L1.29393 21.1946ZM0.046875 30.7578C0.046875 34.5213 0.567318 38.0645 1.61928 41.3013L3.52135 40.6831C2.54206 37.6699 2.04688 34.3381 2.04688 30.7578H0.046875ZM1.61928 41.3013C2.66794 44.5279 4.16654 47.3706 6.04463 49.7386L7.61162 48.4958C5.89596 46.3326 4.50394 43.7065 3.52135 40.6831L1.61928 41.3013ZM6.04463 49.7386C7.90947 52.0899 10.1386 54.1159 12.6889 55.7756L13.7798 54.0994C11.4083 52.556 9.34053 50.6757 7.61162 48.4958L6.04463 49.7386ZM12.6828 55.7716C15.1963 57.4338 17.9902 58.6882 20.9813 59.4966L21.5031 57.5659C18.7129 56.8118 16.1162 55.6443 13.786 54.1034L12.6828 55.7716ZM20.9813 59.4966C23.9611 60.302 27.0569 60.7031 30.3047 60.7031V58.7031C27.2243 58.7031 24.3045 58.323 21.5031 57.5659L20.9813 59.4966ZM95.8125 59L94.862 59.3107L95.0873 60H95.8125V59ZM109.797 59V60H111.23L110.735 58.6549L109.797 59ZM88.8984 2.16406L89.837 1.81896L89.5962 1.16406H88.8984V2.16406ZM76.0859 2.16406V1.16406H75.3873L75.147 1.82009L76.0859 2.16406ZM55.2656 59L54.3266 58.656L53.8343 60H55.2656V59ZM69.25 59V60H69.9778L70.2016 59.3074L69.25 59ZM72.5312 48.8438V47.8438H71.8034L71.5797 48.5363L72.5312 48.8438ZM92.4922 48.8438L93.4427 48.533L93.2173 47.8438H92.4922V48.8438ZM76.2031 37.5156L75.2518 37.2075L74.8282 38.5156H76.2031V37.5156ZM82.4141 18.3359V17.3359H81.6868L81.4627 18.0279L82.4141 18.3359ZM82.5703 18.3359L83.5211 18.0261L83.2962 17.3359H82.5703V18.3359ZM88.8203 37.5156V38.5156H90.1979L89.7711 37.2058L88.8203 37.5156ZM95.8125 60H109.797V58H95.8125V60ZM110.735 58.6549L89.837 1.81896L87.9599 2.50917L108.858 59.3451L110.735 58.6549ZM88.8984 1.16406H76.0859V3.16406H88.8984V1.16406ZM75.147 1.82009L54.3266 58.656L56.2046 59.344L77.0249 2.50803L75.147 1.82009ZM55.2656 60H69.25V58H55.2656V60ZM70.2016 59.3074L73.4828 49.1512L71.5797 48.5363L68.2984 58.6926L70.2016 59.3074ZM72.5312 49.8438H92.4922V47.8438H72.5312V49.8438ZM91.5417 49.1545L94.862 59.3107L96.763 58.6893L93.4427 48.533L91.5417 49.1545ZM77.1545 37.8237L83.3654 18.644L81.4627 18.0279L75.2518 37.2075L77.1545 37.8237ZM82.4141 19.3359H82.5703V17.3359H82.4141V19.3359ZM81.6195 18.6458L87.8695 37.8255L89.7711 37.2058L83.5211 18.0261L81.6195 18.6458ZM88.8203 36.5156H76.2031V38.5156H88.8203V36.5156ZM115.5 59H114.5V60H115.5V59ZM129.016 59V60H130.016V59H129.016ZM129.016 2.16406H130.016V1.16406H129.016V2.16406ZM115.5 2.16406V1.16406H114.5V2.16406H115.5ZM115.5 60H129.016V58H115.5V60ZM130.016 59V2.16406H128.016V59H130.016ZM129.016 1.16406H115.5V3.16406H129.016V1.16406ZM114.5 2.16406V59H116.5V2.16406H114.5ZM139.289 59H138.289V60H139.289V59ZM171.477 56.9297L171.128 55.9925L171.119 55.9958L171.477 56.9297ZM186.398 42.1641L185.464 41.8072L185.463 41.8107L186.398 42.1641ZM180.461 10.1328L181.168 9.42568L181.163 9.42025L180.461 10.1328ZM171.125 4.27344L171.483 3.33957L171.479 3.33833L171.125 4.27344ZM139.289 2.16406V1.16406H138.289V2.16406H139.289ZM152.453 47.0859H151.453V48.0859H152.453V47.0859ZM152.453 14.1172V13.1172H151.453V14.1172H152.453ZM167.062 16.2656L167.587 15.4144L167.577 15.4081L167.062 16.2656ZM172.531 22.2031L173.417 21.7396L173.414 21.734L172.531 22.2031ZM173.781 35.9141L174.738 36.2035L174.741 36.1961L174.743 36.1888L173.781 35.9141ZM168.273 43.9609L168.881 44.7553L168.887 44.7509L168.892 44.7464L168.273 43.9609ZM163.781 46.2656L164.084 47.2186L164.091 47.2165L163.781 46.2656ZM139.289 60H159.172V58H139.289V60ZM159.172 60C163.8 60 168.027 59.3217 171.834 57.8635L171.119 55.9958C167.583 57.3502 163.606 58 159.172 58V60ZM171.826 57.8668C175.613 56.4565 178.83 54.4691 181.408 51.85L179.983 50.4469C177.639 52.8278 174.684 54.6685 171.128 55.9925L171.826 57.8668ZM181.408 51.85C183.969 49.2488 185.958 46.1608 187.334 42.5175L185.463 41.8107C184.183 45.1986 182.344 48.0481 179.983 50.4469L181.408 51.85ZM187.333 42.5209C188.707 38.9233 189.43 34.9734 189.43 30.6797H187.43C187.43 34.7453 186.746 38.4517 185.464 41.8072L187.333 42.5209ZM189.43 30.6797C189.43 26.4251 188.707 22.4303 187.249 18.7849L185.392 19.5276C186.746 22.9135 187.43 26.6531 187.43 30.6797H189.43ZM187.249 18.7849C185.796 15.1525 183.77 12.0281 181.168 9.42571L179.754 10.8399C182.151 13.2375 184.032 16.1287 185.392 19.5276L187.249 18.7849ZM181.163 9.42025C178.514 6.81272 175.268 4.78926 171.483 3.33958L170.767 5.20729C174.326 6.57012 177.329 8.45291 179.759 10.8454L181.163 9.42025ZM171.479 3.33833C167.643 1.88462 163.459 1.16406 158.938 1.16406V3.16406C163.244 3.16406 167.185 3.84975 170.771 5.20855L171.479 3.33833ZM158.938 1.16406H139.289V3.16406H158.938V1.16406ZM138.289 2.16406V59H140.289V2.16406H138.289ZM153.453 47.0859V14.1172H151.453V47.0859H153.453ZM152.453 15.1172H159.25V13.1172H152.453V15.1172ZM159.25 15.1172C161.92 15.1172 164.359 15.81 166.548 17.1231L167.577 15.4081C165.078 13.9087 162.283 13.1172 159.25 13.1172V15.1172ZM166.538 17.1168C168.717 18.4607 170.396 20.3148 171.648 22.6723L173.414 21.734C172.011 19.0915 170.096 16.9612 167.587 15.4145L166.538 17.1168ZM171.645 22.6666C172.892 25.0509 173.523 27.7023 173.523 30.6797H175.523C175.523 27.4071 174.826 24.4335 173.417 21.7396L171.645 22.6666ZM173.523 30.6797C173.523 32.416 173.265 34.0813 172.82 35.6393L174.743 36.1888C175.235 34.4655 175.523 32.6153 175.523 30.6797H173.523ZM172.824 35.6247C172.342 37.2205 171.681 38.6429 170.816 39.8686L172.45 41.022C173.46 39.5915 174.205 37.967 174.738 36.2035L172.824 35.6247ZM170.816 39.8686C169.938 41.1125 168.873 42.2152 167.655 43.1754L168.892 44.7464C170.252 43.6754 171.453 42.4344 172.45 41.022L170.816 39.8686ZM167.666 43.1666C166.44 44.1038 165.06 44.7975 163.472 45.3148L164.091 47.2165C165.861 46.64 167.45 45.8493 168.881 44.7553L167.666 43.1666ZM163.478 45.3127C161.862 45.8268 160.168 46.0859 158.352 46.0859V48.0859C160.363 48.0859 162.263 47.7982 164.084 47.2186L163.478 45.3127ZM158.352 46.0859H152.453V48.0859H158.352V46.0859ZM241.477 59V60H243.344L242.309 58.4457L241.477 59ZM228.156 39H227.156V39.3025L227.324 39.5543L228.156 39ZM228.156 38.8047L227.77 37.8822L227.156 38.1392V38.8047H228.156ZM235.969 32.3984L236.813 32.9346L236.815 32.9316L235.969 32.3984ZM233.82 7.75L234.567 7.08463L234.559 7.07607L234.551 7.06768L233.82 7.75ZM227.453 3.64844L227.803 2.71152L227.798 2.70986L227.453 3.64844ZM196.242 2.16406V1.16406H195.242V2.16406H196.242ZM196.242 59H195.242V60H196.242V59ZM209.406 59V60H210.406V59H209.406ZM209.406 40.6797V39.6797H208.406V40.6797H209.406ZM214.094 40.6797L214.938 40.1434L214.643 39.6797H214.094V40.6797ZM225.734 59L224.89 59.5363L225.185 60H225.734V59ZM209.406 14V13H208.406V14H209.406ZM222.453 16.0703L223.122 15.3269L223.112 15.3177L222.453 16.0703ZM209.406 28.9609H208.406V29.9609H209.406V28.9609ZM242.309 58.4457L228.989 38.4457L227.324 39.5543L240.644 59.5543L242.309 58.4457ZM229.156 39V38.8047H227.156V39H229.156ZM228.542 39.7271C232.069 38.2508 234.856 36.0161 236.813 32.9346L235.125 31.8623C233.41 34.562 230.962 36.5461 227.77 37.8822L228.542 39.7271ZM236.815 32.9316C238.732 29.8894 239.703 26.1405 239.703 21.7734H237.703C237.703 25.8439 236.799 29.2044 235.123 31.8653L236.815 32.9316ZM239.703 21.7734C239.703 18.8214 239.258 16.0913 238.397 13.6306L236.509 14.2913C237.289 16.5181 237.703 19.0224 237.703 21.7734H239.703ZM238.397 13.6306C237.535 11.1673 236.258 8.9823 234.567 7.08463L233.074 8.41537C234.586 10.1115 235.731 12.0671 236.509 14.2913L238.397 13.6306ZM234.551 7.06768C232.791 5.18156 230.544 3.73458 227.803 2.71153L227.104 4.58534C229.596 5.51542 231.568 6.80282 233.089 8.43232L234.551 7.06768ZM227.798 2.70986C225.016 1.687 221.889 1.16406 218.391 1.16406V3.16406C221.689 3.16406 224.578 3.65675 227.108 4.58702L227.798 2.70986ZM218.391 1.16406H196.242V3.16406H218.391V1.16406ZM195.242 2.16406V59H197.242V2.16406H195.242ZM196.242 60H209.406V58H196.242V60ZM210.406 59V40.6797H208.406V59H210.406ZM209.406 41.6797H214.094V39.6797H209.406V41.6797ZM213.25 41.216L224.89 59.5363L226.578 58.4637L214.938 40.1434L213.25 41.216ZM225.734 60H241.477V58H225.734V60ZM209.406 15H215.812V13H209.406V15ZM215.812 15C218.508 15 220.47 15.664 221.795 16.8229L223.112 15.3177C221.311 13.7422 218.82 13 215.812 13V15ZM221.784 16.8136C223.136 18.0305 223.836 19.5573 223.836 21.4609H225.836C225.836 18.9896 224.895 16.9227 223.122 15.327L221.784 16.8136ZM223.836 21.4609C223.836 23.5271 223.095 25.068 221.707 26.1915L222.965 27.746C224.858 26.2133 225.836 24.0822 225.836 21.4609H223.836ZM221.707 26.1915C220.299 27.3312 218.283 27.9609 215.578 27.9609V29.9609C218.577 29.9609 221.092 29.2626 222.965 27.746L221.707 26.1915ZM215.578 27.9609H209.406V29.9609H215.578V27.9609ZM210.406 28.9609V14H208.406V28.9609H210.406Z" fill="#8F8F8F"/>
</svg>
